<?xml version="1.0" standalone="no"?>
<!DOCTYPE svg PUBLIC "-//W3C//DTD SVG 20010904//EN"
 "http://www.w3.org/TR/2001/REC-SVG-20010904/DTD/svg10.dtd">
<svg version="1.0" xmlns="http://www.w3.org/2000/svg"
 width="700.000000pt" height="700.000000pt" viewBox="0 0 700.000000 700.000000"
 preserveAspectRatio="xMidYMid meet">
<metadata>
Created by potrace 1.14, written by Peter Selinger 2001-2017
</metadata>
<g transform="translate(0.000000,700.000000) scale(0.100000,-0.100000)"
fill="#000000" stroke="none">
<path d="M1741 6989 c-365 -39 -741 -196 -1024 -427 -363 -296 -594 -690 -689
-1177 -22 -110 -22 -117 -25 -1805 -3 -1176 -1 -1730 7 -1810 50 -524 304
-1004 707 -1332 290 -237 661 -389 1042 -428 142 -14 3340 -14 3482 0 301 31
622 141 863 297 500 322 825 856 886 1452 14 142 14 3340 0 3482 -46 451 -240
865 -555 1182 -294 296 -638 473 -1075 554 -88 16 -222 18 -1815 19 -950 1
-1758 -2 -1804 -7z m1539 -2019 l0 -680 -952 2 -953 3 -3 678 -2 677 955 0
955 0 0 -680z m2370 -605 l0 -1285 -955 0 -955 0 0 1285 0 1285 955 0 955 0 0
-1285z m-2370 -1700 l0 -1285 -955 0 -955 0 0 1285 0 1285 955 0 955 0 0
-1285z m2370 -610 l0 -675 -955 0 -955 0 0 675 0 675 955 0 955 0 0 -675z"/>
</g>
</svg>
