<svg width="16" height="16" viewBox="0 0 16 16" fill="none" xmlns="http://www.w3.org/2000/svg">
<path fill-rule="evenodd" clip-rule="evenodd" d="M7.99994 2.8C6.50264 2.8 5.28883 4.01381 5.28883 5.51111C5.28883 7.00842 6.50264 8.22222 7.99994 8.22222C9.49725 8.22222 10.7111 7.00842 10.7111 5.51111C10.7111 4.01381 9.49725 2.8 7.99994 2.8ZM4.48883 5.51111C4.48883 3.57198 6.06081 2 7.99994 2C9.93907 2 11.5111 3.57198 11.5111 5.51111C11.5111 7.45024 9.93907 9.02222 7.99994 9.02222C6.06081 9.02222 4.48883 7.45024 4.48883 5.51111ZM7.99993 10.8C6.49312 10.8 5.07065 11.1343 4.10149 11.4334C3.46207 11.6308 3.0093 12.2036 2.89867 12.9073L2.79622 13.6543C2.7662 13.8732 2.56444 14.0263 2.34558 13.9963C2.12671 13.9663 1.97362 13.7645 2.00364 13.5457L2.10758 12.7877C2.25743 11.8244 2.8924 10.9694 3.86552 10.669C4.8769 10.3568 6.38383 10 7.99993 10C9.61602 10 11.123 10.3568 12.1343 10.669C13.1075 10.9694 13.7424 11.8244 13.8922 12.7877L13.8933 12.7949L13.9962 13.5457C14.0262 13.7645 13.8731 13.9663 13.6543 13.9963C13.4354 14.0263 13.2337 13.8732 13.2036 13.6543L13.1012 12.9073C12.9906 12.2036 12.5378 11.6308 11.8984 11.4334C10.9292 11.1343 9.50673 10.8 7.99993 10.8Z" fill="#242D39"/>
</svg>
