<svg width="16" height="16" viewBox="0 0 16 16" fill="none" xmlns="http://www.w3.org/2000/svg">
<path fill-rule="evenodd" clip-rule="evenodd" d="M1.6001 12.8C1.6001 12.579 1.77918 12.4 2.0001 12.4L14.0001 12.4C14.221 12.4 14.4001 12.579 14.4001 12.8C14.4001 13.0209 14.221 13.2 14.0001 13.2L2.0001 13.2C1.77918 13.2 1.6001 13.0209 1.6001 12.8ZM1.6001 6.39995C1.6001 6.17903 1.77918 5.99995 2.0001 5.99995L14.0001 5.99995C14.221 5.99995 14.4001 6.17904 14.4001 6.39995C14.4001 6.62086 14.221 6.79995 14.0001 6.79995L2.0001 6.79995C1.77918 6.79995 1.6001 6.62086 1.6001 6.39995ZM1.60039 3.19995C1.60039 2.97903 1.77948 2.79995 2.00039 2.79995L14.0004 2.79995C14.2213 2.79995 14.4004 2.97903 14.4004 3.19995C14.4004 3.42086 14.2213 3.59995 14.0004 3.59995L2.00039 3.59995C1.77948 3.59995 1.60039 3.42086 1.60039 3.19995ZM1.6004 9.59995C1.6004 9.37904 1.77948 9.19995 2.0004 9.19995L14.0004 9.19995C14.2213 9.19995 14.4004 9.37903 14.4004 9.59995C14.4004 9.82086 14.2213 9.99995 14.0004 9.99995L2.0004 9.99995C1.77948 9.99995 1.6004 9.82086 1.6004 9.59995Z" fill="#F8F8FB"/>
</svg>
