<svg width="60" height="60" viewBox="0 0 60 60" fill="none" xmlns="http://www.w3.org/2000/svg">
<g clip-path="url(#clip0_526_18248)">
<g opacity="0.24">
<path opacity="0.24" d="M49.5613 45.6816C49.9851 45.6852 50.3906 45.8552 50.6903 46.1549C50.99 46.4546 51.16 46.8601 51.1635 47.2839V49.9703C51.16 50.3941 50.99 50.7996 50.6903 51.0993C50.3906 51.399 49.9851 51.569 49.5613 51.5726C49.138 51.5672 48.7335 51.3967 48.4341 51.0974C48.1348 50.7981 47.9643 50.3936 47.959 49.9703V47.2839C47.9804 46.8659 48.1561 46.4707 48.452 46.1747C48.748 45.8787 49.1432 45.703 49.5613 45.6816V45.6816Z" fill="#FEE878"/>
</g>
<path d="M11.3044 33.0338C11.1236 33.0338 10.9502 32.962 10.8223 32.8341C10.6944 32.7063 10.6226 32.5328 10.6226 32.352V15.5316C10.6189 15.2181 10.678 14.907 10.7963 14.6166C10.9146 14.3263 11.0897 14.0625 11.3114 13.8408C11.5331 13.6191 11.7969 13.444 12.0872 13.3257C12.3776 13.2074 12.6886 13.1484 13.0021 13.152H39.859C40.1722 13.1493 40.4829 13.209 40.7728 13.3276C41.0627 13.4462 41.3261 13.6214 41.5476 13.8429C41.7691 14.0644 41.9443 14.3278 42.0629 14.6177C42.1815 14.9077 42.2412 15.2183 42.2385 15.5316V18.0747C42.2385 18.2556 42.1667 18.429 42.0388 18.5569C41.9109 18.6847 41.7375 18.7566 41.5567 18.7566C41.3759 18.7566 41.2024 18.6847 41.0746 18.5569C40.9467 18.429 40.8749 18.2556 40.8749 18.0747V15.5316C40.8796 15.3969 40.8566 15.2626 40.8072 15.1372C40.7579 15.0118 40.6832 14.8979 40.5879 14.8026C40.4926 14.7073 40.3787 14.6326 40.2533 14.5833C40.1279 14.5339 39.9937 14.5109 39.859 14.5157H13.0021C12.8674 14.5109 12.7332 14.5339 12.6078 14.5833C12.4824 14.6326 12.3685 14.7073 12.2732 14.8026C12.1779 14.8979 12.1032 15.0118 12.0539 15.1372C12.0045 15.2626 11.9815 15.3969 11.9862 15.5316V32.352C11.9862 32.5328 11.9144 32.7063 11.7865 32.8341C11.6587 32.962 11.4852 33.0338 11.3044 33.0338V33.0338ZM39.859 52.4929H13.0021C12.3738 52.4841 11.7737 52.2306 11.3293 51.7862C10.8849 51.3419 10.6314 50.7417 10.6226 50.1134V42.7634C10.6226 42.5825 10.6944 42.4091 10.8223 42.2813C10.9502 42.1534 11.1236 42.0816 11.3044 42.0816C11.4852 42.0816 11.6587 42.1534 11.7865 42.2813C11.9144 42.4091 11.9862 42.5825 11.9862 42.7634V50.1134C11.9931 50.3806 12.1024 50.635 12.2914 50.8241C12.4805 51.0131 12.7349 51.1224 13.0021 51.1293H39.859C39.9937 51.1341 40.1279 51.111 40.2533 51.0617C40.3787 51.0123 40.4926 50.9376 40.5879 50.8423C40.6832 50.747 40.7579 50.6331 40.8072 50.5077C40.8566 50.3823 40.8796 50.2481 40.8749 50.1134V25.4725C40.8749 25.2916 40.9467 25.1182 41.0746 24.9904C41.2024 24.8625 41.3759 24.7907 41.5567 24.7907C41.7375 24.7907 41.9109 24.8625 42.0388 24.9904C42.1667 25.1182 42.2385 25.2916 42.2385 25.4725V50.1134C42.2412 50.4266 42.1815 50.7373 42.0629 51.0272C41.9443 51.3171 41.7691 51.5805 41.5476 51.802C41.3261 52.0236 41.0627 52.1987 40.7728 52.3173C40.4829 52.436 40.1722 52.4957 39.859 52.4929Z" fill="#1CB13D"/>
<path d="M31.9773 14.4683H20.8705C20.6954 14.4685 20.5269 14.4014 20.4 14.2808C20.2731 14.1602 20.1974 13.9954 20.1886 13.8206C20.1493 13.0023 20.2742 12.1845 20.5559 11.4153C20.8377 10.646 21.2706 9.94104 21.8292 9.3418C22.3878 8.74257 23.0607 8.26124 23.8082 7.9262C24.5558 7.59116 25.3628 7.40919 26.1818 7.39102C27.8225 7.37291 29.408 7.98272 30.6136 9.09556C31.205 9.63134 31.6829 10.2803 32.0191 11.0041C32.3552 11.7278 32.5427 12.5117 32.5705 13.3092C32.6057 13.4658 32.6217 13.626 32.6182 13.7865C32.6185 13.9604 32.5523 14.1279 32.4332 14.2547C32.314 14.3814 32.1509 14.4579 31.9773 14.4683ZM21.6 13.1047H31.2C31.0868 11.9564 30.5496 10.8916 29.6932 10.1183C28.7513 9.22689 27.499 8.73773 26.2023 8.75465C25.0322 8.78322 23.9134 9.24075 23.0586 10.0402C22.2038 10.8397 21.6726 11.9255 21.5659 13.091L21.6 13.1047ZM36.7977 49.241H15.8318C15.2035 49.2322 14.6033 48.9787 14.159 48.5343C13.7146 48.09 13.4611 47.4898 13.4523 46.8615V19.016C13.4611 18.3877 13.7146 17.7875 14.159 17.3432C14.6033 16.8988 15.2035 16.6453 15.8318 16.6365H20.6795C20.8604 16.6365 21.0338 16.7083 21.1617 16.8362C21.2895 16.964 21.3614 17.1375 21.3614 17.3183C21.3614 17.4991 21.2895 17.6725 21.1617 17.8004C21.0338 17.9283 20.8604 18.0001 20.6795 18.0001H15.8318C15.5646 18.007 15.3101 18.1163 15.1211 18.3053C14.9321 18.4943 14.8228 18.7488 14.8159 19.016V46.8615C14.8228 47.1287 14.9321 47.3831 15.1211 47.5722C15.3101 47.7612 15.5646 47.8705 15.8318 47.8774H36.7977C37.0638 47.8688 37.3165 47.7588 37.5041 47.5699C37.6917 47.381 37.8 47.1276 37.8068 46.8615V18.9819C37.8115 18.8478 37.7887 18.7142 37.7397 18.5892C37.6908 18.4643 37.6167 18.3507 37.5222 18.2555C37.4276 18.1603 37.3146 18.0855 37.1899 18.0357C37.0653 17.9859 36.9319 17.9622 36.7977 17.966H31.9773C31.7964 17.966 31.623 17.8942 31.4952 17.7663C31.3673 17.6385 31.2955 17.465 31.2955 17.2842C31.2955 17.1034 31.3673 16.9299 31.4952 16.8021C31.623 16.6742 31.7964 16.6024 31.9773 16.6024H36.8318C37.1419 16.6042 37.4485 16.6672 37.7341 16.7879C38.0197 16.9087 38.2787 17.0846 38.496 17.3058C38.7133 17.5269 38.8848 17.7889 39.0006 18.0765C39.1163 18.3642 39.1741 18.6719 39.1705 18.9819V46.8615C39.1634 47.4892 38.9114 48.0893 38.4681 48.5339C38.0248 48.9784 37.4254 49.2322 36.7977 49.241V49.241Z" fill="#1CB13D"/>
<path opacity="0.24" d="M33.0272 15.8593H24.7363C24.3089 15.8611 23.8982 15.6935 23.5941 15.3932C23.29 15.0929 23.1172 14.6844 23.1136 14.257C23.1212 14.0458 23.1674 13.8379 23.25 13.6433C23.6904 12.5009 24.4664 11.5186 25.476 10.8258C26.4855 10.133 27.6812 9.76221 28.9056 9.76221C30.13 9.76221 31.3257 10.133 32.3353 10.8258C33.3448 11.5186 34.1209 12.5009 34.5613 13.6433C34.6422 13.844 34.6819 14.0589 34.6782 14.2752C34.6744 14.4915 34.6273 14.7049 34.5395 14.9027C34.4518 15.1004 34.3252 15.2785 34.1673 15.4265C34.0094 15.5744 33.8235 15.6891 33.6204 15.7638C33.4311 15.8353 33.2294 15.8678 33.0272 15.8593V15.8593Z" fill="#D5D8DE"/>
<path d="M28.7388 19.9363H24.1706C23.6461 19.9418 23.1259 19.8425 22.6403 19.6444C22.1548 19.4462 21.7136 19.1531 21.3428 18.7823C20.972 18.4114 20.6789 17.9703 20.4807 17.4847C20.2825 16.9992 20.1833 16.4789 20.1888 15.9545V13.7863C20.1888 13.6055 20.2606 13.4321 20.3885 13.3042C20.5163 13.1763 20.6897 13.1045 20.8706 13.1045H32.0388C32.2196 13.1045 32.393 13.1763 32.5209 13.3042C32.6487 13.4321 32.7206 13.6055 32.7206 13.7863V15.9545C32.726 16.4789 32.6268 16.9992 32.4286 17.4847C32.2305 17.9703 31.9374 18.4114 31.5665 18.7823C31.1957 19.1531 30.7545 19.4462 30.269 19.6444C29.7834 19.8425 29.2632 19.9418 28.7388 19.9363V19.9363ZM21.5524 14.4818V15.9681C21.5487 16.313 21.614 16.6551 21.7443 16.9744C21.8745 17.2937 22.0673 17.5837 22.3111 17.8276C22.555 18.0714 22.845 18.2642 23.1643 18.3944C23.4836 18.5247 23.8257 18.59 24.1706 18.5863H28.7388C29.0836 18.59 29.4257 18.5247 29.745 18.3944C30.0643 18.2642 30.3544 18.0714 30.5982 17.8276C30.8421 17.5837 31.0348 17.2937 31.1651 16.9744C31.2954 16.6551 31.3606 16.313 31.3569 15.9681V14.4681L21.5524 14.4818ZM48.6206 45.4227C47.9922 45.4139 47.3921 45.1603 46.9477 44.716C46.5034 44.2716 46.2498 43.6715 46.241 43.0431V16.9363C46.241 16.3034 46.4924 15.6964 46.94 15.2489C47.3875 14.8014 47.9945 14.5499 48.6274 14.5499C49.2603 14.5499 49.8673 14.8014 50.3148 15.2489C50.7623 15.6964 51.0138 16.3034 51.0138 16.9363V25.9909C51.0138 26.1717 50.9419 26.3451 50.8141 26.473C50.6862 26.6008 50.5128 26.6727 50.3319 26.6727C50.1511 26.6727 49.9777 26.6008 49.8498 26.473C49.7219 26.3451 49.6501 26.1717 49.6501 25.9909V16.9363C49.6501 16.6651 49.5424 16.4049 49.3506 16.2131C49.1588 16.0213 48.8986 15.9136 48.6274 15.9136C48.3561 15.9136 48.096 16.0213 47.9042 16.2131C47.7124 16.4049 47.6047 16.6651 47.6047 16.9363V43.0431C47.6047 43.3144 47.7124 43.5745 47.9042 43.7663C48.096 43.9581 48.3561 44.0659 48.6274 44.0659C48.8986 44.0659 49.1588 43.9581 49.3506 43.7663C49.5424 43.5745 49.6501 43.3144 49.6501 43.0431V31.5954C49.6501 31.4146 49.7219 31.2411 49.8498 31.1133C49.9777 30.9854 50.1511 30.9136 50.3319 30.9136C50.5128 30.9136 50.6862 30.9854 50.8141 31.1133C50.9419 31.2411 51.0138 31.4146 51.0138 31.5954V43.0431C51.0049 43.6738 50.7495 44.276 50.3022 44.7207C49.8549 45.1654 49.2513 45.4174 48.6206 45.4227V45.4227Z" fill="#FDD509"/>
<path d="M48.5728 50.4206C47.9445 50.4117 47.3443 50.1582 46.9 49.7139C46.4556 49.2695 46.2021 48.6694 46.1933 48.041V43.0433C46.184 42.7436 46.2347 42.445 46.3424 42.1652C46.4501 41.8853 46.6127 41.6299 46.8206 41.4137C47.1488 41.0667 47.5735 40.8258 48.0398 40.7221C48.5062 40.6184 48.9929 40.6567 49.4373 40.8319C49.8817 41.0072 50.2635 41.3115 50.5335 41.7056C50.8035 42.0997 50.9494 42.5656 50.9524 43.0433V48.041C50.9436 48.6694 50.69 49.2695 50.2457 49.7139C49.8013 50.1582 49.2012 50.4117 48.5728 50.4206V50.4206ZM48.5728 42.0274C48.4305 42.0266 48.2895 42.0546 48.1583 42.1097C48.0271 42.1648 47.9083 42.2458 47.8092 42.3478C47.7231 42.4384 47.6563 42.5456 47.6129 42.6628C47.5695 42.78 47.5505 42.9048 47.5569 43.0297V48.0615C47.5569 48.3327 47.6647 48.5929 47.8565 48.7847C48.0483 48.9764 48.3084 49.0842 48.5796 49.0842C48.8509 49.0842 49.111 48.9764 49.3028 48.7847C49.4946 48.5929 49.6024 48.3327 49.6024 48.0615V43.0433C49.5953 42.7737 49.4842 42.5173 49.2923 42.3279C49.1003 42.1385 48.8425 42.0308 48.5728 42.0274V42.0274Z" fill="#1CB13D"/>
<path d="M33.5931 25.7998C33.5034 25.8004 33.4144 25.7832 33.3314 25.7492C33.2483 25.7153 33.1727 25.6653 33.109 25.6021L32.2158 24.7089C32.1519 24.6455 32.1012 24.5701 32.0666 24.487C32.032 24.404 32.0142 24.3148 32.0142 24.2248C32.0142 24.1348 32.032 24.0457 32.0666 23.9626C32.1012 23.8795 32.1519 23.8041 32.2158 23.7407C32.3436 23.6138 32.5164 23.5425 32.6965 23.5425C32.8766 23.5425 33.0495 23.6138 33.1772 23.7407L34.0704 24.6407C34.1974 24.7685 34.2687 24.9413 34.2687 25.1214C34.2687 25.3016 34.1974 25.4744 34.0704 25.6021C33.9434 25.7281 33.772 25.7991 33.5931 25.7998V25.7998Z" fill="#FDD509"/>
<path d="M33.5931 25.8C33.5033 25.8005 33.4144 25.7833 33.3313 25.7494C33.2482 25.7154 33.1727 25.6654 33.109 25.6022C32.982 25.4745 32.9107 25.3017 32.9107 25.1216C32.9107 24.9414 32.982 24.7686 33.109 24.6409L35.2772 22.4727C35.3383 22.4013 35.4135 22.3434 35.4981 22.3024C35.5827 22.2615 35.6748 22.2385 35.7687 22.2349C35.8626 22.2313 35.9562 22.2471 36.0437 22.2814C36.1312 22.3156 36.2107 22.3676 36.2771 22.4341C36.3436 22.5005 36.3956 22.58 36.4299 22.6675C36.4641 22.755 36.48 22.8486 36.4763 22.9425C36.4727 23.0364 36.4497 23.1285 36.4088 23.2131C36.3679 23.2977 36.3099 23.3729 36.2385 23.4341L34.0703 25.6022C33.9433 25.7282 33.7719 25.7992 33.5931 25.8V25.8Z" fill="#FDD509"/>
<path d="M35.5227 27.6614H30.75C30.5692 27.6614 30.3957 27.5895 30.2679 27.4617C30.14 27.3338 30.0682 27.1604 30.0682 26.9795V22.2068C30.0682 22.026 30.14 21.8526 30.2679 21.7247C30.3957 21.5968 30.5692 21.525 30.75 21.525H33.6273C33.8081 21.525 33.9815 21.5968 34.1094 21.7247C34.2373 21.8526 34.3091 22.026 34.3091 22.2068C34.3091 22.3876 34.2373 22.5611 34.1094 22.6889C33.9815 22.8168 33.8081 22.8886 33.6273 22.8886H31.4455V26.2977H34.8545V25.7523C34.8545 25.5714 34.9264 25.398 35.0542 25.2702C35.1821 25.1423 35.3555 25.0705 35.5364 25.0705C35.7172 25.0705 35.8906 25.1423 36.0185 25.2702C36.1463 25.398 36.2182 25.5714 36.2182 25.7523V26.9795C36.2182 27.0702 36.2001 27.16 36.165 27.2437C36.1299 27.3273 36.0784 27.4031 36.0137 27.4665C35.9489 27.53 35.8721 27.58 35.7878 27.6134C35.7035 27.6469 35.6134 27.6632 35.5227 27.6614V27.6614ZM35.5227 36.6614H30.75C30.5692 36.6614 30.3957 36.5895 30.2679 36.4617C30.14 36.3338 30.0682 36.1604 30.0682 35.9795V31.2545C30.0682 31.0737 30.14 30.9003 30.2679 30.7724C30.3957 30.6446 30.5692 30.5727 30.75 30.5727H35.5227C35.7036 30.5727 35.877 30.6446 36.0048 30.7724C36.1327 30.9003 36.2045 31.0737 36.2045 31.2545V36.0273C36.1924 36.1997 36.1153 36.3611 35.9887 36.4788C35.8621 36.5965 35.6956 36.6618 35.5227 36.6614V36.6614ZM31.4318 35.2977H34.8409V31.9364H31.4318V35.2977ZM35.5227 45.7091H30.75C30.5692 45.7091 30.3957 45.6373 30.2679 45.5094C30.14 45.3815 30.0682 45.2081 30.0682 45.0273V40.2545C30.0682 40.0737 30.14 39.9003 30.2679 39.7724C30.3957 39.6446 30.5692 39.5727 30.75 39.5727H35.5227C35.7036 39.5727 35.877 39.6446 36.0048 39.7724C36.1327 39.9003 36.2045 40.0737 36.2045 40.2545V45.0273C36.2045 45.2081 36.1327 45.3815 36.0048 45.5094C35.877 45.6373 35.7036 45.7091 35.5227 45.7091ZM31.4318 44.3455H34.8409V40.9364H31.4318V44.3455ZM24.4023 27.6614H17.3386C17.1578 27.6614 16.9844 27.5895 16.8565 27.4617C16.7287 27.3338 16.6568 27.1604 16.6568 26.9795C16.6568 26.7987 16.7287 26.6253 16.8565 26.4974C16.9844 26.3696 17.1578 26.2977 17.3386 26.2977H24.4023C24.5831 26.2977 24.7565 26.3696 24.8844 26.4974C25.0123 26.6253 25.0841 26.7987 25.0841 26.9795C25.0841 27.1604 25.0123 27.3338 24.8844 27.4617C24.7565 27.5895 24.5831 27.6614 24.4023 27.6614ZM26.4273 25.2545H17.3386C17.1578 25.2545 16.9844 25.1827 16.8565 25.0548C16.7287 24.927 16.6568 24.7536 16.6568 24.5727C16.6568 24.3919 16.7287 24.2185 16.8565 24.0906C16.9844 23.9627 17.1578 23.8909 17.3386 23.8909H26.4273C26.6081 23.8909 26.7815 23.9627 26.9094 24.0906C27.0373 24.2185 27.1091 24.3919 27.1091 24.5727C27.1091 24.7536 27.0373 24.927 26.9094 25.0548C26.7815 25.1827 26.6081 25.2545 26.4273 25.2545ZM24.4023 36.6614H17.3386C17.1578 36.6614 16.9844 36.5895 16.8565 36.4617C16.7287 36.3338 16.6568 36.1604 16.6568 35.9795C16.6568 35.7987 16.7287 35.6253 16.8565 35.4974C16.9844 35.3696 17.1578 35.2977 17.3386 35.2977H24.4023C24.5831 35.2977 24.7565 35.3696 24.8844 35.4974C25.0123 35.6253 25.0841 35.7987 25.0841 35.9795C25.0841 36.1604 25.0123 36.3338 24.8844 36.4617C24.7565 36.5895 24.5831 36.6614 24.4023 36.6614ZM26.4273 34.3023H17.3386C17.1578 34.3023 16.9844 34.2304 16.8565 34.1026C16.7287 33.9747 16.6568 33.8013 16.6568 33.6205C16.6568 33.4396 16.7287 33.2662 16.8565 33.1383C16.9844 33.0105 17.1578 32.9386 17.3386 32.9386H26.4273C26.6081 32.9386 26.7815 33.0105 26.9094 33.1383C27.0373 33.2662 27.1091 33.4396 27.1091 33.6205C27.1091 33.8013 27.0373 33.9747 26.9094 34.1026C26.7815 34.2304 26.6081 34.3023 26.4273 34.3023ZM24.4023 45.6136H17.3386C17.1578 45.6136 16.9844 45.5418 16.8565 45.4139C16.7287 45.2861 16.6568 45.1126 16.6568 44.9318C16.6568 44.751 16.7287 44.5776 16.8565 44.4497C16.9844 44.3218 17.1578 44.25 17.3386 44.25H24.4023C24.5831 44.25 24.7565 44.3218 24.8844 44.4497C25.0123 44.5776 25.0841 44.751 25.0841 44.9318C25.0841 45.1126 25.0123 45.2861 24.8844 45.4139C24.7565 45.5418 24.5831 45.6136 24.4023 45.6136ZM26.4273 43.2068H17.3386C17.1578 43.2068 16.9844 43.135 16.8565 43.0071C16.7287 42.8793 16.6568 42.7058 16.6568 42.525C16.6568 42.3442 16.7287 42.1707 16.8565 42.0429C16.9844 41.915 17.1578 41.8432 17.3386 41.8432H26.4273C26.6081 41.8432 26.7815 41.915 26.9094 42.0429C27.0373 42.1707 27.1091 42.3442 27.1091 42.525C27.1091 42.7058 27.0373 42.8793 26.9094 43.0071C26.7815 43.135 26.6081 43.2068 26.4273 43.2068ZM4.14545 6.92727C3.46012 6.92727 2.79019 6.72396 2.22045 6.34307C1.65072 5.96218 1.20678 5.42083 0.944825 4.78753C0.682872 4.15424 0.61468 3.45747 0.748879 2.7854C0.883077 2.11334 1.21363 1.49619 1.69871 1.01207C2.1838 0.52794 2.80159 0.198599 3.47392 0.0657251C4.14625 -0.067149 4.84288 0.00241594 5.47566 0.265616C6.10844 0.528816 6.64891 0.97382 7.02868 1.54431C7.40845 2.1148 7.61044 2.78512 7.60909 3.47046C7.60729 4.38789 7.24157 5.26713 6.59221 5.91521C5.94285 6.56329 5.06289 6.92728 4.14545 6.92727V6.92727ZM4.14545 1.37046C3.73011 1.37046 3.3241 1.49362 2.97876 1.72437C2.63341 1.95512 2.36425 2.2831 2.20531 2.66682C2.04636 3.05055 2.00478 3.47279 2.08581 3.88015C2.16683 4.28751 2.36684 4.66169 2.66053 4.95538C2.95422 5.24907 3.3284 5.44908 3.73576 5.5301C4.14312 5.61113 4.56537 5.56955 4.94909 5.4106C5.33281 5.25166 5.66079 4.9825 5.89154 4.63715C6.12229 4.29181 6.24545 3.8858 6.24545 3.47046C6.24545 2.9135 6.02421 2.37936 5.63038 1.98553C5.23655 1.59171 4.70241 1.37046 4.14545 1.37046V1.37046ZM58.7045 13.1523C58.5257 13.1515 58.3543 13.0805 58.2273 12.9545L54.3136 9.08864C54.1852 8.96115 54.1128 8.78789 54.1121 8.60696C54.1115 8.42603 54.1827 8.25225 54.3102 8.12386C54.4377 7.99548 54.611 7.92299 54.7919 7.92235C54.9728 7.92171 55.1466 7.99297 55.275 8.12046L59.1818 11.9795C59.2457 12.0429 59.2964 12.1183 59.3311 12.2014C59.3657 12.2845 59.3835 12.3736 59.3835 12.4636C59.3835 12.5536 59.3657 12.6428 59.3311 12.7258C59.2964 12.8089 59.2457 12.8843 59.1818 12.9477C59.0559 13.0762 58.8844 13.1497 58.7045 13.1523V13.1523ZM12.5318 60.1227H6.96818C6.78735 60.1227 6.61393 60.0509 6.48606 59.923C6.3582 59.7952 6.28636 59.6217 6.28636 59.4409C6.28636 59.2601 6.3582 59.0867 6.48606 58.9588C6.61393 58.8309 6.78735 58.7591 6.96818 58.7591H12.5318C12.7126 58.7591 12.8861 58.8309 13.0139 58.9588C13.1418 59.0867 13.2136 59.2601 13.2136 59.4409C13.2136 59.6217 13.1418 59.7952 13.0139 59.923C12.8861 60.0509 12.7126 60.1227 12.5318 60.1227Z" fill="#1CB13D"/>
<path d="M54.7909 13.1521C54.6546 13.1529 54.5213 13.1128 54.408 13.0371C54.2947 12.9614 54.2066 12.8535 54.1553 12.7273C54.1039 12.601 54.0915 12.4623 54.1198 12.329C54.148 12.1957 54.2155 12.0739 54.3136 11.9793L58.2273 8.12024C58.2889 8.04933 58.3645 7.99193 58.4494 7.95164C58.5343 7.91134 58.6266 7.88902 58.7205 7.88608C58.8144 7.88313 58.9079 7.89963 58.9951 7.93452C59.0823 7.96942 59.1614 8.02197 59.2274 8.08887C59.2933 8.15578 59.3448 8.23559 59.3784 8.3233C59.4121 8.41102 59.4272 8.50474 59.423 8.5986C59.4187 8.69245 59.3951 8.78441 59.3536 8.8687C59.3121 8.95299 59.2536 9.02779 59.1818 9.08842L55.275 12.9543C55.2113 13.0175 55.1357 13.0675 55.0527 13.1014C54.9696 13.1354 54.8807 13.1526 54.7909 13.1521Z" fill="#1CB13D"/>
</g>
<defs>
<clipPath id="clip0_526_18248">
<rect width="60" height="60" fill="white"/>
</clipPath>
</defs>
</svg>
