<svg width="60" height="60" viewBox="0 0 60 60" fill="none" xmlns="http://www.w3.org/2000/svg">
<path d="M38.5298 11.5977V29.7136V11.5977ZM40.9912 26.4817V31.534V26.4817ZM36.0412 26.4817V27.0408V26.4817ZM50.7617 48.5727L50.4412 50.4545C50.4183 50.675 50.3194 50.8806 50.1614 51.0362C50.0034 51.1917 49.7961 51.2873 49.5753 51.3067C49.3622 51.289 49.162 51.1976 49.009 51.0483C48.856 50.899 48.7597 50.7011 48.7367 50.4886L48.3208 48.5658L50.7617 48.5727ZM14.3185 45.3886H38.4276V50.209H14.3185V45.3886Z" stroke="#1CB13D" stroke-width="2" stroke-linecap="round" stroke-linejoin="round"/>
<path d="M16.1049 50.2978L15.6344 52.9705C15.6065 53.2838 15.4711 53.5779 15.2511 53.8028C15.0312 54.0277 14.7403 54.1697 14.4276 54.2046C14.13 54.1687 13.8524 54.0357 13.638 53.8261C13.4235 53.6166 13.2841 53.3423 13.2413 53.0455L12.6685 50.3182M10.2208 32.8569H13.664C13.8448 32.8569 14.0182 32.9287 14.1461 33.0566C14.274 33.1844 14.3458 33.3578 14.3458 33.5387V50.2091H11.5367C11.0123 50.2091 10.5094 50.0008 10.1386 49.63C9.76777 49.2592 9.55945 48.7563 9.55945 48.2319V33.5114C9.55945 33.3306 9.63128 33.1572 9.75915 33.0293C9.88701 32.9014 10.0604 32.8296 10.2413 32.8296L10.2208 32.8569ZM19.6299 40.575H14.3185H38.4276H33.2663H19.6299ZM40.2685 50.1887L39.7981 52.8478C39.7689 53.1589 39.6338 53.4505 39.4154 53.6739C39.197 53.8973 38.9084 54.0389 38.5981 54.075C38.3004 54.0459 38.0216 53.9156 37.8083 53.706C37.5949 53.4963 37.4598 53.2199 37.4254 52.9228L36.839 50.1955L40.2685 50.1887Z" stroke="#1CB13D" stroke-width="2" stroke-linecap="round" stroke-linejoin="round"/>
<path d="M16.9776 27.436H16.2958C16.037 27.4352 15.7806 27.4852 15.5412 27.5834C15.3018 27.6816 15.084 27.826 14.9004 28.0084C14.7168 28.1907 14.5709 28.4074 14.4711 28.6461C14.3712 28.8849 14.3194 29.1409 14.3185 29.3997V29.3997V40.5747H38.4344V29.4133C38.4344 28.8889 38.2261 28.386 37.8553 28.0152C37.4844 27.6444 36.9815 27.436 36.4571 27.436H16.9776Z" stroke="#FDD509" stroke-width="2" stroke-miterlimit="10" stroke-linecap="round"/>
<path d="M6.28633 22.1046C7.8754 22.1046 9.1636 20.8164 9.1636 19.2274C9.1636 17.6383 7.8754 16.3501 6.28633 16.3501C4.69726 16.3501 3.40906 17.6383 3.40906 19.2274C3.40906 20.8164 4.69726 22.1046 6.28633 22.1046Z" stroke="#1CB13D" stroke-width="2" stroke-linecap="round" stroke-linejoin="round"/>
<path d="M51.3544 6.12954L55.4317 2.05908M51.3544 2.05908L55.4317 6.12954L51.3544 2.05908ZM37.5885 58.2614H43.3499H37.5885Z" stroke="#1CB13D" stroke-width="2" stroke-linecap="round" stroke-linejoin="round"/>
<path d="M23.1685 27.0067V15.3477C23.1685 14.3531 23.5635 13.3993 24.2668 12.696C24.9701 11.9927 25.9239 11.5977 26.9185 11.5977H50.1344C51.1289 11.5977 52.0828 11.9927 52.786 12.696C53.4893 13.3993 53.8844 14.3531 53.8844 15.3477V44.509C53.8844 45.5018 53.49 46.4539 52.788 47.1558C52.086 47.8578 51.1339 48.2522 50.1412 48.2522H43.548" stroke="#FDD509" stroke-width="2" stroke-linecap="round" stroke-linejoin="round"/>
<path d="M14.3185 40.575H38.4276V45.3955H14.3185V40.575ZM39.1162 32.8569H42.5594C42.7402 32.8569 42.9136 32.9287 43.0415 33.0566C43.1694 33.1844 43.2412 33.3578 43.2412 33.5387V48.2319C43.2412 48.7563 43.0329 49.2592 42.6621 49.63C42.2913 50.0008 41.7883 50.2091 41.2639 50.2091H38.4685V33.5114C38.4685 33.3306 38.5403 33.1572 38.6682 33.0293C38.796 32.9014 38.9695 32.8296 39.1503 32.8296L39.1162 32.8569Z" stroke="#1CB13D" stroke-width="2" stroke-linecap="round" stroke-linejoin="round"/>
</svg>
