<svg width="20" height="20" viewBox="0 0 20 20" fill="none" xmlns="http://www.w3.org/2000/svg">
<path fill-rule="evenodd" clip-rule="evenodd" d="M10 3.5C8.12839 3.5 6.61113 5.01726 6.61113 6.88889C6.61113 8.76052 8.12839 10.2778 10 10.2778C11.8716 10.2778 13.3889 8.76052 13.3889 6.88889C13.3889 5.01726 11.8716 3.5 10 3.5ZM5.61113 6.88889C5.61113 4.46497 7.5761 2.5 10 2.5C12.4239 2.5 14.3889 4.46497 14.3889 6.88889C14.3889 9.31281 12.4239 11.2778 10 11.2778C7.5761 11.2778 5.61113 9.31281 5.61113 6.88889ZM10 13.5C8.11649 13.5 6.3384 13.9178 5.12695 14.2918C4.32768 14.5385 3.76172 15.2545 3.62343 16.1341L3.49536 17.0679C3.45784 17.3415 3.20565 17.5329 2.93207 17.4954C2.65848 17.4578 2.46712 17.2056 2.50464 16.9321L2.63456 15.9846C2.82188 14.7804 3.61559 13.7118 4.83199 13.3363C6.09621 12.946 7.97988 12.5 10 12.5C12.0201 12.5 13.9038 12.946 15.168 13.3363C16.3844 13.7118 17.178 14.7805 17.3654 15.9847L17.3667 15.9936L17.4954 16.9321C17.5329 17.2056 17.3415 17.4578 17.0679 17.4954C16.7944 17.5329 16.5422 17.3415 16.5046 17.0679L16.3766 16.1341C16.2383 15.2545 15.6723 14.5385 14.873 14.2918C13.6616 13.9178 11.8835 13.5 10 13.5Z" fill="#242D39"/>
</svg>
