<svg width="20" height="20" viewBox="0 0 20 20" fill="none" xmlns="http://www.w3.org/2000/svg">
<path fill-rule="evenodd" clip-rule="evenodd" d="M11.6563 2.92033C12.1508 2.05471 13.1123 1.56562 14.1031 1.67571L16.0283 1.88962C17.1726 2.01676 18.1627 2.96089 17.9786 4.22828C17.6953 6.17853 16.6573 9.53319 13.0957 13.0948C9.53417 16.6563 6.17913 17.6948 4.22861 17.9784C2.96106 18.1627 2.01663 17.1726 1.88946 16.028L1.67559 14.1032C1.5655 13.1124 2.05459 12.1509 2.92022 11.6564L4.20401 10.923C5.18281 10.3639 6.41476 10.5289 7.21186 11.326L7.24933 11.3635C7.61416 11.7283 8.06565 11.8169 8.41007 11.6351C8.891 11.3812 9.53742 10.9534 10.2453 10.2455C10.9532 9.53754 11.3811 8.89112 11.6349 8.41019C11.8167 8.06577 11.7282 7.61428 11.3634 7.24944L11.3259 7.21198C10.5288 6.41488 10.3637 5.18293 10.9229 4.20412L11.6563 2.92033ZM13.9927 2.6696C13.3982 2.60354 12.8213 2.897 12.5246 3.41637L11.7912 4.70016C11.4557 5.28744 11.5547 6.02661 12.033 6.50487L12.0705 6.54234C12.6513 7.12319 12.9618 8.03867 12.5193 8.877C12.2209 9.4423 11.7344 10.1706 10.9524 10.9526C10.1705 11.7345 9.44218 12.221 8.87688 12.5194C8.03855 12.9619 7.12308 12.6514 6.54222 12.0706L6.50475 12.0331C6.02649 11.5549 5.28733 11.4558 4.70004 11.7913L3.41625 12.5247C2.89688 12.8214 2.60342 13.3983 2.66948 13.9928L2.88334 15.9176C2.9628 16.6328 3.50055 17.0738 4.08471 16.9888C5.84137 16.7334 8.99276 15.7835 12.3886 12.3877C15.7845 8.99179 16.7339 5.84082 16.989 4.08453C17.0738 3.50052 16.6329 2.96295 15.9179 2.8835L13.9927 2.6696Z" fill="#242D39"/>
</svg>
