<svg width="267" height="24" viewBox="0 0 267 24" fill="none" xmlns="http://www.w3.org/2000/svg">
<g clip-path="url(#clip0_236_12931)">
<path d="M10.6668 0H0V7.58928H10.6668V0Z" fill="#FDD509"/>
<path d="M10.6668 9.63672H0V24.0001H10.6668V9.63672Z" fill="#FDD509"/>
<path d="M24 16.4111H13.3331V24.0004H24V16.4111Z" fill="#FDD509"/>
<path d="M24 0H13.3331V14.3634H24V0Z" fill="#FDD509"/>
<path d="M123.725 17.6301V3.78613H119.339V8.63836H113.578V3.78613H109.192L109.193 17.6301H113.578V12.4489H119.339V17.6301H123.725Z" fill="#FBFBFC"/>
<path d="M45.1678 3.57387C44.8248 3.53385 44.4799 3.51361 44.1347 3.51327C43.3366 3.50178 42.5454 3.66352 41.8158 3.98734C41.0862 4.31116 40.4356 4.78935 39.9086 5.38894V3.7874H35.5297V22.8082H39.8971V17.614H39.9086V16.1207C40.9706 17.3009 42.4509 17.8853 44.139 17.8853C44.3728 17.8853 44.6036 17.8766 44.8316 17.8607C48.4285 17.5967 51.105 15.2435 51.105 10.713C51.105 6.30659 48.5209 3.96199 45.1678 3.57242V3.57387ZM43.331 14.0647C41.2476 14.0647 39.9043 13.0229 39.9043 10.6928C39.9043 8.38426 41.249 7.34831 43.331 7.34831C45.3871 7.34831 46.7303 8.39003 46.7303 10.6928C46.7303 13.0229 45.3871 14.0647 43.331 14.0647Z" fill="#FBFBFC"/>
<path d="M125.653 7.62503H130.862V17.631H135.248V7.62503H140.456V3.78711L125.653 3.78855V7.62503Z" fill="#FBFBFC"/>
<path d="M149.113 3.51074C144.755 3.51074 141.301 5.86832 141.301 10.6931C141.301 15.5454 144.755 17.9073 149.113 17.9073C153.442 17.9073 156.905 15.5497 156.905 10.6931C156.905 5.86832 153.451 3.51074 149.113 3.51074ZM149.113 14.065C147.03 14.065 145.687 13.0233 145.687 10.6931C145.687 8.38461 147.031 7.34867 149.113 7.34867C151.169 7.34867 152.513 8.39039 152.513 10.6931C152.513 13.0233 151.169 14.065 149.113 14.065Z" fill="#FBFBFC"/>
<path d="M181.156 14.0663V3.78613H176.77V17.6301H184.036L188.614 7.21285V17.6301H192.998V3.78613H185.666L181.156 14.0663Z" fill="#FBFBFC"/>
<path d="M89.386 3.78613H82.0536L79.8634 11.7707L77.6732 3.78613H70.3407V17.6301H74.7269V7.21285L77.6429 17.6301H82.0839L84.9998 7.21285V17.6301H89.386V3.78613Z" fill="#FBFBFC"/>
<path d="M172.437 10.5415C173.295 9.90517 173.735 8.93559 173.735 7.74525C173.735 5.44683 172.102 3.78613 169.029 3.78613H159V17.6272H169.583C172.656 17.6272 174.291 15.965 174.291 13.6681C174.291 12.257 173.626 11.1763 172.435 10.54L172.437 10.5415ZM163.364 7.10752H168.27C169.017 7.10752 169.488 7.41196 169.488 8.10452C169.488 8.76966 169.017 9.04669 168.27 9.04669H163.364V7.10752ZM168.703 14.1961H163.364V12.2036H168.703C169.424 12.2036 169.92 12.508 169.92 13.1732C169.92 13.8657 169.423 14.1976 168.703 14.1976" fill="#FBFBFC"/>
<path d="M223.171 3.78613L219.57 8.63836H217.718V3.78613H213.332V17.6301H217.718V12.4489H220.209L223.169 17.6301H227.912L223.459 9.79696L227.912 3.78613H223.171Z" fill="#FBFBFC"/>
<path d="M236.117 3.51074C231.759 3.51074 228.304 5.86832 228.304 10.6931C228.304 15.5454 231.759 17.9073 236.119 17.9073C240.447 17.9073 243.91 15.5497 243.91 10.6931C243.91 5.86832 240.456 3.51074 236.119 3.51074H236.117ZM236.119 14.065C234.035 14.065 232.692 13.0233 232.692 10.6931C232.692 8.38461 234.037 7.34867 236.119 7.34867C238.175 7.34867 239.518 8.39039 239.518 10.6931C239.518 13.0233 238.175 14.065 236.119 14.065Z" fill="#FBFBFC"/>
<path d="M257.587 3.59274V1.19043H253.75V3.59274C248.814 4.08619 245.663 6.47118 245.663 10.6626C245.663 14.9391 248.816 17.3241 253.75 17.8176V20.2473H257.587V17.8205C262.492 17.327 266.057 14.9348 266.057 10.6655C266.057 6.47118 262.494 4.08619 257.587 3.59563V3.59274ZM253.75 13.958C251.42 13.6565 250.049 12.7244 250.049 10.6684C250.049 8.66717 251.42 7.76251 253.75 7.46096V13.958ZM257.588 13.958V7.46529C259.897 7.76684 261.261 8.67149 261.261 10.6727C261.261 12.7287 259.891 13.6608 257.588 13.9623" fill="#FBFBFC"/>
<path d="M205.782 8.33104C205.782 10.5703 200.026 10.553 200.026 8.33104V3.78613H195.647V9.41316C195.647 15.31 205.433 13.9711 205.789 12.9466V17.6272H210.175V3.78613H205.789L205.782 8.33104Z" fill="#FBFBFC"/>
<path d="M99.304 3.51074C94.9438 3.51074 91.4896 5.86832 91.4911 10.6931C91.4911 15.5454 94.9452 17.9073 99.304 17.9073C103.632 17.9073 107.095 15.5497 107.095 10.6931C107.095 5.86832 103.641 3.51074 99.304 3.51074ZM99.304 14.065C97.2206 14.065 95.8773 13.0233 95.8773 10.6931C95.8773 8.38461 97.222 7.34867 99.304 7.34867C101.36 7.34867 102.703 8.39039 102.703 10.6931C102.703 13.0233 101.36 14.065 99.304 14.065Z" fill="#FBFBFC"/>
<path d="M60.6766 7.1072C62.271 7.1072 63.4339 7.78245 63.8768 9.23393H57.449C57.8934 7.78245 59.0607 7.1072 60.6766 7.1072ZM64.2577 13.2378C63.5204 13.9592 62.3142 14.3026 61.1802 14.3026C59.6508 14.3026 58.0189 13.698 57.5255 12.3894H64.8175L68.3135 12.3634C68.414 11.8118 68.4623 11.2519 68.4578 10.6912C68.4578 5.86637 65.0037 3.50879 60.6665 3.50879C56.3063 3.50879 52.8522 5.86637 52.8522 10.6912C52.8522 15.5434 56.7925 17.9053 61.1513 17.9053C63.8667 17.9053 66.0093 17.2315 67.5834 15.3717L64.2577 13.2378Z" fill="#FBFBFC"/>
</g>
<defs>
<clipPath id="clip0_236_12931">
<rect width="266.057" height="24" fill="white"/>
</clipPath>
</defs>
</svg>
