<svg width="482" height="300" viewBox="0 0 482 300" fill="none" xmlns="http://www.w3.org/2000/svg">
<g clip-path="url(#clip0_625_25068)">
<path d="M242.063 299.841C374.407 299.841 481.693 284.467 481.693 265.503C481.693 246.538 374.407 231.164 242.063 231.164C109.72 231.164 2.43384 246.538 2.43384 265.503C2.43384 284.467 109.72 299.841 242.063 299.841Z" fill="#EAF1FC"/>
<path d="M443.545 256.878C474.233 193.227 491.058 71.3756 424.709 30.8994C381.217 4.44442 335.979 38.5185 289.524 40.0529C253.069 41.2698 217.937 12.4868 185.026 4.28569C98.836 -17.2487 -36.7196 38.783 22.8571 256.878C171.958 256.455 294.497 257.302 443.545 256.878Z" fill="#F8F8FF"/>
<path d="M321.799 12.0635H323.809C329.049 12.0628 334.237 13.0942 339.077 15.0988C343.918 17.1034 348.316 20.042 352.02 23.7467C355.725 27.4513 358.664 31.8495 360.668 36.69C362.673 41.5305 363.704 46.7185 363.704 51.9576V166.032C363.705 166.275 363.658 166.517 363.566 166.742C363.473 166.967 363.337 167.172 363.164 167.344C362.992 167.517 362.787 167.653 362.562 167.745C362.337 167.838 362.095 167.885 361.852 167.884H283.81C283.566 167.885 283.325 167.838 283.099 167.745C282.874 167.653 282.669 167.517 282.497 167.344C282.325 167.172 282.188 166.967 282.096 166.742C282.003 166.517 281.956 166.275 281.958 166.032V51.9576C281.951 46.7212 282.976 41.5347 284.975 36.6948C286.974 31.8549 289.908 27.4566 293.608 23.7514C297.308 20.0462 301.703 17.1068 306.54 15.1013C311.377 13.0957 316.562 12.0635 321.799 12.0635Z" fill="white"/>
<path d="M362.169 169.683H282.593C282.279 169.684 281.969 169.623 281.68 169.504C281.39 169.385 281.127 169.21 280.906 168.988C280.684 168.767 280.509 168.504 280.39 168.214C280.271 167.925 280.21 167.615 280.212 167.302V36.0847C280.212 29.5174 282.82 23.2191 287.464 18.5753C292.108 13.9316 298.406 11.3228 304.974 11.3228H339.683C346.26 11.3367 352.563 13.9556 357.214 18.6063C361.864 23.2569 364.483 29.5606 364.497 36.1376V167.354C364.504 167.662 364.448 167.968 364.333 168.253C364.219 168.538 364.047 168.798 363.83 169.015C363.612 169.233 363.353 169.404 363.068 169.519C362.782 169.633 362.477 169.689 362.169 169.683ZM282.751 167.143H362.011V36.0317C362.011 33.1065 361.434 30.21 360.315 27.5074C359.196 24.8049 357.555 22.3493 355.486 20.2809C353.418 18.2124 350.962 16.5716 348.26 15.4522C345.557 14.3328 342.661 13.7566 339.735 13.7566H305.026C299.122 13.7664 293.462 16.1164 289.286 20.2917C285.111 24.4669 282.761 30.127 282.751 36.0317V167.143Z" fill="#D6E0F0"/>
<path d="M322.381 168.624C322.045 168.62 321.725 168.485 321.488 168.248C321.25 168.011 321.115 167.69 321.111 167.354V12.5396C321.111 12.2028 321.245 11.8798 321.483 11.6417C321.721 11.4036 322.044 11.2698 322.381 11.2698C322.718 11.2698 323.041 11.4036 323.279 11.6417C323.517 11.8798 323.651 12.2028 323.651 12.5396V167.407C323.647 167.571 323.612 167.732 323.546 167.881C323.48 168.031 323.386 168.166 323.268 168.279C323.15 168.392 323.011 168.481 322.859 168.54C322.707 168.599 322.544 168.628 322.381 168.624Z" fill="#D6E0F0"/>
<path d="M363.28 132.857H281.481C281.152 132.857 280.835 132.726 280.602 132.493C280.369 132.26 280.238 131.944 280.238 131.614C280.238 131.284 280.369 130.968 280.602 130.735C280.835 130.501 281.152 130.37 281.481 130.37H363.28C363.61 130.37 363.926 130.501 364.16 130.735C364.393 130.968 364.524 131.284 364.524 131.614C364.524 131.944 364.393 132.26 364.16 132.493C363.926 132.726 363.61 132.857 363.28 132.857ZM363.28 55.0794H281.481C281.145 55.0794 280.822 54.9456 280.583 54.7074C280.345 54.4693 280.212 54.1463 280.212 53.8095C280.212 53.4727 280.345 53.1497 280.583 52.9116C280.822 52.6735 281.145 52.5397 281.481 52.5397H363.28C363.617 52.5397 363.94 52.6735 364.178 52.9116C364.416 53.1497 364.55 53.4727 364.55 53.8095C364.55 54.1463 364.416 54.4693 364.178 54.7074C363.94 54.9456 363.617 55.0794 363.28 55.0794ZM363.28 93.9682H281.481C281.145 93.9682 280.822 93.8345 280.583 93.5963C280.345 93.3582 280.212 93.0352 280.212 92.6984C280.212 92.3616 280.345 92.0386 280.583 91.8005C280.822 91.5623 281.145 91.4286 281.481 91.4286H363.28C363.617 91.4286 363.94 91.5623 364.178 91.8005C364.416 92.0386 364.55 92.3616 364.55 92.6984C364.55 93.0352 364.416 93.3582 364.178 93.5963C363.94 93.8345 363.617 93.9682 363.28 93.9682Z" fill="#D6E0F0"/>
<path d="M428.995 94.127C424.815 95.6614 426.773 101.429 429.471 104.021C432.381 106.825 436.878 108.413 439.365 105.344C439.475 105.23 439.561 105.096 439.618 104.949C439.675 104.801 439.702 104.644 439.697 104.486C439.692 104.328 439.655 104.173 439.589 104.029C439.523 103.886 439.429 103.757 439.312 103.651C439.181 103.523 439.022 103.427 438.847 103.372C438.673 103.317 438.488 103.304 438.307 103.333C436.508 103.386 435.132 102.91 435.82 101.587C436.508 100.265 439.259 102.804 440.265 102.804C442.54 102.857 443.439 101.111 442.91 99.6825C442.487 98.5185 439.312 98.0952 440.106 97.1428C441.217 95.7672 442.857 97.9365 443.968 96.9312C445.767 95.4497 445.45 92.5397 444.656 91.5344C444.021 90.6878 441.376 89.418 439.418 90.2645C437.566 91.0582 438.095 95.1323 437.249 95.1852C435.556 95.291 436.931 91.6931 435.609 90.6349C434.815 90 432.487 90.4233 431.958 91.9577C431.217 93.9682 433.968 97.7778 431.958 97.9894C430.106 98.2539 431.164 96.0846 430.635 94.9206C430.476 94.6032 429.788 93.8095 428.995 94.127Z" fill="#E9EDF4"/>
<path d="M415.873 127.09H415.82C415.714 127.037 415.661 126.931 415.714 126.878C420.289 113.022 429.599 101.22 442.011 93.545C442.031 93.5311 442.055 93.5214 442.079 93.5166C442.104 93.5117 442.129 93.5117 442.154 93.5166C442.178 93.5216 442.202 93.5313 442.223 93.5452C442.243 93.5591 442.261 93.577 442.275 93.5979C442.289 93.6187 442.299 93.6421 442.304 93.6667C442.308 93.6913 442.308 93.7166 442.303 93.7411C442.299 93.7657 442.289 93.789 442.275 93.8099C442.261 93.8307 442.243 93.8485 442.222 93.8624C429.903 101.516 420.669 113.26 416.138 127.037C416.054 127.071 415.964 127.089 415.873 127.09Z" fill="#CDE4F7"/>
<path d="M417.302 82.2751C414.233 85.5026 418.571 89.7883 422.169 90.8994C426.032 92.1164 430.741 91.4815 431.64 87.619C431.69 87.4698 431.709 87.3118 431.696 87.1549C431.683 86.998 431.638 86.8455 431.564 86.7067C431.489 86.5679 431.387 86.4458 431.264 86.3479C431.141 86.25 430.999 86.1784 430.847 86.1375C430.678 86.0816 430.499 86.0668 430.325 86.0944C430.15 86.122 429.984 86.1912 429.841 86.2963C428.254 87.1428 426.825 87.3545 426.825 85.873C426.825 84.3915 430.423 85.3968 431.376 84.9735C433.439 83.9682 433.439 82.0635 432.328 81.0053C431.429 80.1587 428.413 81.2169 428.677 80C429.048 78.2539 431.429 79.4709 432.063 78.0952C433.016 75.9259 431.429 73.492 430.212 72.9629C429.259 72.4867 426.349 72.5397 424.974 74.1799C423.651 75.7143 426.032 79.1005 425.238 79.5767C423.757 80.4232 423.386 76.6137 421.693 76.2434C420.688 76.0317 418.783 77.4603 418.995 79.0476C419.259 81.164 423.439 83.3333 421.746 84.4444C420.212 85.5026 420.212 83.0688 419.153 82.2751C418.896 82.0542 418.567 81.9327 418.228 81.9327C417.888 81.9327 417.56 82.0542 417.302 82.2751Z" fill="#E9EDF4"/>
<path d="M420.317 117.672C420.296 117.674 420.274 117.672 420.254 117.665C420.233 117.658 420.215 117.646 420.199 117.631C420.184 117.616 420.173 117.597 420.166 117.577C420.158 117.556 420.156 117.535 420.159 117.513C418.023 103.087 421.019 88.3691 428.624 75.9259C428.677 75.8201 428.783 75.8201 428.889 75.873C428.995 75.9259 428.995 76.0317 428.942 76.1376C421.379 88.5188 418.402 103.162 420.529 117.513C420.529 117.566 420.423 117.619 420.317 117.672Z" fill="#CDE4F7"/>
<path d="M414.127 89.6296C417.937 91.9576 414.815 97.1957 411.64 99.2063C408.201 101.376 403.492 102.011 401.64 98.5185C401.56 98.383 401.507 98.2331 401.485 98.0773C401.463 97.9215 401.472 97.7629 401.511 97.6105C401.551 97.4581 401.62 97.315 401.714 97.1893C401.809 97.0637 401.928 96.958 402.063 96.8783C402.372 96.7135 402.733 96.6755 403.069 96.7724C404.815 97.1957 406.243 96.9841 405.82 95.6084C405.397 94.2327 402.222 96.0846 401.217 95.9259C398.995 95.5026 398.466 93.6507 399.259 92.328C399.947 91.2698 403.069 91.4814 402.54 90.4232C401.746 88.8359 399.735 90.6349 398.783 89.4708C397.302 87.619 398.201 84.8677 399.206 84.0211C400 83.3333 402.804 82.5925 404.603 83.8095C406.296 84.9735 404.868 88.8359 405.767 89.1005C407.407 89.5238 406.825 85.7142 408.307 84.9735C409.206 84.4973 411.376 85.3968 411.64 86.9841C411.958 89.1005 408.466 92.2751 410.37 92.91C412.116 93.5449 411.534 91.2169 412.328 90.1587C412.593 89.7883 413.386 89.1534 414.127 89.6296Z" fill="#E9EDF4"/>
<path d="M420.317 124.603C420.296 124.606 420.274 124.603 420.254 124.596C420.233 124.589 420.215 124.578 420.2 124.562C420.184 124.547 420.173 124.528 420.166 124.508C420.158 124.488 420.156 124.466 420.159 124.444C418.511 110.031 411.843 96.6567 401.323 86.6666C401.288 86.6316 401.268 86.584 401.268 86.5344C401.268 86.4847 401.288 86.4372 401.323 86.4021C401.358 86.367 401.405 86.3473 401.455 86.3473C401.505 86.3473 401.552 86.367 401.587 86.4021C412.154 96.4574 418.857 109.901 420.529 124.391C420.525 124.446 420.502 124.498 420.463 124.537C420.424 124.576 420.372 124.599 420.317 124.603Z" fill="#CDE4F7"/>
<path d="M412.91 131.323H426.561L428.624 112.646H410.688L412.91 131.323Z" fill="white"/>
<path d="M428.677 115.979H410.635C410.509 115.979 410.387 115.929 410.298 115.839C410.209 115.75 410.159 115.629 410.159 115.503L409.947 113.175C409.946 113.043 409.995 112.916 410.083 112.818C410.171 112.72 410.292 112.659 410.423 112.646H428.942C429.068 112.646 429.189 112.696 429.278 112.785C429.368 112.874 429.418 112.995 429.418 113.122V113.175L429.206 115.503C429.178 115.627 429.112 115.739 429.017 115.824C428.922 115.91 428.804 115.964 428.677 115.979Z" fill="#E9EDF4"/>
<path d="M394.021 131.534C393.965 131.534 393.91 131.544 393.858 131.565C393.807 131.586 393.76 131.617 393.72 131.657C393.681 131.696 393.65 131.743 393.629 131.795C393.608 131.846 393.597 131.902 393.598 131.958V133.122C393.597 133.177 393.608 133.233 393.629 133.284C393.65 133.336 393.681 133.383 393.72 133.423C393.76 133.462 393.807 133.493 393.858 133.514C393.91 133.535 393.965 133.546 394.021 133.545H437.354C437.41 133.546 437.466 133.535 437.517 133.514C437.569 133.493 437.616 133.462 437.655 133.423C437.695 133.383 437.726 133.336 437.747 133.284C437.768 133.233 437.778 133.177 437.778 133.122V131.958C437.778 131.902 437.768 131.846 437.747 131.795C437.726 131.743 437.695 131.696 437.655 131.657C437.616 131.617 437.569 131.586 437.517 131.565C437.466 131.544 437.41 131.534 437.354 131.534H394.021Z" fill="#D6E0F0"/>
<path d="M85.7144 -0.0528564H87.3546V74.2329H85.7144V-0.0528564Z" fill="#EAF1FC"/>
<path d="M98.7831 89.6296C98.7831 86.3039 97.462 83.1144 95.1103 80.7628C92.7587 78.4111 89.5691 77.09 86.2434 77.09C82.9177 77.09 79.7282 78.4111 77.3765 80.7628C75.0249 83.1144 73.7037 86.3039 73.7037 89.6296H98.7831Z" fill="#D6E0F0"/>
<path d="M90.6878 77.1957C90.6878 80.8994 88.6243 83.8624 86.0317 83.8624C83.4391 83.8624 81.3756 80.8994 81.3756 77.1957C81.3756 73.492 83.4391 70.5291 86.0317 70.5291C88.6243 70.5291 90.6878 73.492 90.6878 77.1957Z" fill="#D6E0F0"/>
<path d="M65.1322 -0.0528564H66.7724V48.2011H65.1322V-0.0528564Z" fill="#EAF1FC"/>
<path d="M78.1481 63.5979C78.1481 60.2722 76.827 57.0827 74.4753 54.731C72.1237 52.3794 68.9341 51.0582 65.6084 51.0582C62.2827 51.0582 59.0932 52.3794 56.7415 54.731C54.3899 57.0827 53.0687 60.2722 53.0687 63.5979H78.1481Z" fill="#D6E0F0"/>
<path d="M70.0529 51.164C70.0529 54.8677 67.9894 57.8306 65.3968 57.8306C62.8042 57.8306 60.7407 54.8677 60.7407 51.164C60.7407 47.4603 62.8042 44.4973 65.3968 44.4973C67.9894 44.4973 70.0529 47.4603 70.0529 51.164Z" fill="#D6E0F0"/>
<path d="M202.857 99.0476C210.951 99.0476 217.513 92.4859 217.513 84.3916C217.513 76.2972 210.951 69.7355 202.857 69.7355C194.763 69.7355 188.201 76.2972 188.201 84.3916C188.201 92.4859 194.763 99.0476 202.857 99.0476Z" fill="#D6E0F0"/>
<path d="M202.857 95.5026C208.994 95.5026 213.968 90.528 213.968 84.3915C213.968 78.255 208.994 73.2804 202.857 73.2804C196.721 73.2804 191.746 78.255 191.746 84.3915C191.746 90.528 196.721 95.5026 202.857 95.5026Z" fill="#FCFBFC"/>
<path d="M206.138 91.5344L203.439 84.127C203.38 83.9469 203.253 83.7969 203.085 83.7081C202.918 83.6194 202.722 83.5989 202.54 83.6508L194.603 85.5026C194.506 85.5235 194.414 85.5633 194.332 85.6197C194.25 85.6762 194.18 85.7483 194.126 85.8318C194.072 85.9153 194.035 86.0087 194.017 86.1065C193.999 86.2044 194 86.3048 194.021 86.4021C194.042 86.4994 194.082 86.5916 194.138 86.6735C194.195 86.7554 194.267 86.8253 194.35 86.8794C194.434 86.9334 194.527 86.9705 194.625 86.9885C194.723 87.0064 194.823 87.0049 194.921 86.9841L202.169 85.291L204.656 92.0635C204.707 92.2153 204.808 92.3452 204.943 92.4317C205.077 92.5183 205.238 92.5564 205.397 92.5396C205.488 92.5479 205.58 92.5295 205.661 92.4867C205.848 92.4194 206.001 92.283 206.09 92.1057C206.178 91.9284 206.196 91.7239 206.138 91.5344Z" fill="#D6E0F0"/>
<path d="M202.698 85.926C203.546 85.926 204.233 85.239 204.233 84.3916C204.233 83.5441 203.546 82.8572 202.698 82.8572C201.851 82.8572 201.164 83.5441 201.164 84.3916C201.164 85.239 201.851 85.926 202.698 85.926Z" fill="#D6E0F0"/>
<path d="M173.439 275.873L145.503 186.825L151.111 185.344L175.873 275.873H173.439Z" fill="#D6E0F0"/>
<path d="M123.968 275.873L144.974 185.132L150.582 186.455L126.455 275.873H123.968Z" fill="#D6E0F0"/>
<path d="M165.291 247.354H131.64V244.286H164.444L165.291 247.354ZM24.7089 275.873L52.5925 186.825L47.037 185.344L22.2222 275.873H24.7089Z" fill="#D6E0F0"/>
<path d="M74.1269 275.873L53.1216 185.132L47.5132 186.455L71.6931 275.873H74.1269Z" fill="#D6E0F0"/>
<path d="M32.8042 247.354H66.455V244.286H33.7037L32.8042 247.354ZM21.8518 187.619H175.873V178.73H21.8518V187.619Z" fill="#D6E0F0"/>
<path d="M34.2857 162.857H55.0264C55.1363 162.865 55.2397 162.912 55.3175 162.989C55.3953 163.067 55.4423 163.171 55.4497 163.28V178.254C55.4423 178.364 55.3953 178.467 55.3175 178.545C55.2397 178.623 55.1363 178.67 55.0264 178.677H34.2857C34.1759 178.67 34.0725 178.623 33.9947 178.545C33.9168 178.467 33.8699 178.364 33.8624 178.254V163.28C33.8699 163.171 33.9168 163.067 33.9947 162.989C34.0725 162.912 34.1759 162.865 34.2857 162.857Z" fill="#EDF0F4"/>
<path d="M33.5979 164.921V161.27C33.6025 161.172 33.6269 161.076 33.6698 160.987C33.7126 160.899 33.773 160.82 33.8472 160.756C33.9215 160.691 34.008 160.643 34.1016 160.613C34.1951 160.583 34.2938 160.573 34.3916 160.582H54.9207C55.0191 160.568 55.1194 160.576 55.2147 160.604C55.31 160.633 55.3982 160.681 55.4733 160.746C55.5484 160.811 55.6088 160.892 55.6504 160.982C55.6919 161.072 55.7137 161.17 55.7143 161.27V164.921H33.5979Z" fill="#D6E0F0"/>
<path d="M57.8306 157.884H88.3597C88.4439 157.881 88.5278 157.895 88.6061 157.926C88.6845 157.957 88.7557 158.003 88.8152 158.063C88.8748 158.123 88.9215 158.194 88.9523 158.272C88.9832 158.35 88.9976 158.434 88.9946 158.518V178.148C88.9976 178.232 88.9832 178.316 88.9523 178.395C88.9215 178.473 88.8748 178.544 88.8152 178.604C88.7557 178.663 88.6845 178.71 88.6061 178.741C88.5278 178.772 88.4439 178.786 88.3597 178.783H57.8306C57.7464 178.786 57.6626 178.772 57.5842 178.741C57.5058 178.71 57.4346 178.663 57.3751 178.604C57.3155 178.544 57.2689 178.473 57.238 178.395C57.2071 178.316 57.1927 178.232 57.1957 178.148V158.518C57.1984 158.351 57.2662 158.191 57.3847 158.073C57.5032 157.954 57.6631 157.886 57.8306 157.884Z" fill="#EDF0F4"/>
<path d="M57.1958 160.476V155.132C57.1985 154.965 57.2663 154.805 57.3848 154.686C57.5033 154.568 57.6632 154.5 57.8307 154.497H88.3598C88.5274 154.5 88.6873 154.568 88.8058 154.686C88.9243 154.805 88.992 154.965 88.9947 155.132V160.476H57.1958ZM68.1482 168.201H86.508V175.82H68.1482V168.201Z" fill="#D6E0F0"/>
<path d="M401.481 177.249H405.344V199.153H401.481V177.249Z" fill="#E9EDF4"/>
<path d="M417.302 200.106H389.524C389.524 199.039 389.947 198.017 390.702 197.262C391.456 196.508 392.478 196.085 393.545 196.085H413.228C413.76 196.079 414.288 196.179 414.781 196.378C415.274 196.578 415.723 196.873 416.102 197.247C416.481 197.621 416.782 198.066 416.988 198.556C417.194 199.047 417.3 199.574 417.302 200.106Z" fill="#D6E0F0"/>
<path d="M417.46 180.794H389.418C388.893 180.797 388.388 180.593 388.012 180.227C387.636 179.86 387.419 179.361 387.407 178.836C387.409 178.546 387.463 178.26 387.566 177.989L396.032 159.048C396.18 158.696 396.431 158.396 396.752 158.189C397.073 157.981 397.449 157.875 397.831 157.884H408.889C409.269 157.886 409.64 157.996 409.958 158.203C410.277 158.409 410.53 158.702 410.688 159.048L419.153 177.989C419.262 178.229 419.322 178.488 419.33 178.751C419.339 179.013 419.295 179.275 419.201 179.521C419.108 179.767 418.967 179.992 418.786 180.183C418.605 180.374 418.388 180.528 418.148 180.635C417.929 180.725 417.697 180.778 417.46 180.794Z" fill="#CDE4F7"/>
<path d="M356.402 200.106H434.286V269.048H356.402V200.106Z" fill="#E9EDF4"/>
<path d="M363.175 205.397H426.931V229.577H363.175V205.397ZM363.175 234.603H426.931V262.54H363.175V234.603ZM359.682 269.048H366.667V275.132H359.682V269.048ZM423.439 269.048H430.423V275.132H423.439V269.048Z" fill="#D6E0F0"/>
<path d="M369.524 243.439C371.394 243.439 372.91 241.923 372.91 240.053C372.91 238.183 371.394 236.667 369.524 236.667C367.654 236.667 366.138 238.183 366.138 240.053C366.138 241.923 367.654 243.439 369.524 243.439Z" fill="#FCFBFC"/>
<path d="M367.193 209.806L398.833 209.773L398.842 218.185L367.202 218.219L367.193 209.806Z" fill="#E9EDF4"/>
<path d="M373.805 218.534L408.726 218.498L408.737 229.503L373.817 229.54L373.805 218.534Z" fill="#FCFBFC"/>
<path d="M134.709 141.905C130.529 143.439 132.487 149.206 135.185 151.799C138.095 154.603 142.593 156.191 145.079 153.122C145.189 153.008 145.274 152.873 145.331 152.726C145.387 152.579 145.414 152.422 145.409 152.264C145.404 152.106 145.368 151.951 145.302 151.808C145.236 151.664 145.143 151.535 145.026 151.429C144.895 151.301 144.736 151.205 144.562 151.15C144.387 151.095 144.202 151.082 144.021 151.111C142.222 151.164 140.847 150.688 141.534 149.365C142.222 148.042 144.974 150.582 145.979 150.582C148.254 150.635 149.153 148.889 148.624 147.46C148.201 146.296 145.026 145.873 145.82 144.921C146.931 143.545 148.519 145.714 149.683 144.709C151.482 143.228 151.164 140.317 150.37 139.312C149.735 138.466 147.09 137.196 145.132 138.042C143.28 138.836 143.81 142.91 142.963 142.963C141.27 143.069 142.646 139.471 141.323 138.413C140.529 137.778 138.201 138.201 137.672 139.735C136.931 141.746 139.735 145.556 137.672 145.767C135.82 146.032 136.878 143.862 136.349 142.698C136.191 142.381 135.556 141.587 134.709 141.905Z" fill="#E9EDF4"/>
<path d="M121.587 174.868H121.534C121.429 174.815 121.376 174.762 121.429 174.656C126.001 160.813 135.289 149.016 147.672 141.323C147.778 141.27 147.884 141.27 147.937 141.376C147.989 141.481 147.989 141.587 147.884 141.64C135.564 149.306 126.316 161.043 121.746 174.815C121.746 174.868 121.693 174.868 121.587 174.868Z" fill="#CDE4F7"/>
<path d="M123.069 130.053C120 133.28 124.339 137.566 127.937 138.677C131.799 139.894 136.508 139.259 137.407 135.397C137.458 135.248 137.477 135.09 137.464 134.933C137.45 134.776 137.405 134.623 137.331 134.485C137.257 134.346 137.155 134.224 137.031 134.126C136.908 134.028 136.766 133.956 136.614 133.915C136.446 133.859 136.267 133.845 136.092 133.872C135.917 133.9 135.751 133.969 135.608 134.074C134.074 134.921 132.593 135.132 132.646 133.651C132.698 132.169 136.243 133.175 137.196 132.751C139.259 131.746 139.259 129.841 138.148 128.783C137.249 127.937 134.233 128.995 134.497 127.778C134.868 126.032 137.302 127.249 137.884 125.873C138.836 123.704 137.249 121.27 136.085 120.741C135.132 120.265 132.222 120.317 130.847 121.958C129.524 123.492 131.852 126.878 131.111 127.355C129.63 128.201 129.259 124.392 127.566 124.021C126.561 123.81 124.709 125.238 124.868 126.825C125.132 128.942 129.312 131.111 127.619 132.222C126.085 133.28 126.085 130.847 125.026 130.053C124.603 129.788 123.651 129.418 123.069 130.053Z" fill="#E9EDF4"/>
<path d="M126.085 165.45C126.063 165.452 126.041 165.45 126.021 165.443C126.001 165.436 125.982 165.424 125.967 165.409C125.951 165.394 125.94 165.375 125.933 165.355C125.926 165.334 125.923 165.313 125.926 165.291C123.79 150.865 126.786 136.147 134.391 123.704C134.444 123.598 134.55 123.598 134.656 123.651C134.762 123.704 134.762 123.81 134.709 123.915C127.146 136.297 124.169 150.94 126.296 165.291C126.236 165.356 126.164 165.41 126.085 165.45Z" fill="#CDE4F7"/>
<path d="M119.841 137.407C123.651 139.735 120.529 144.974 117.354 146.984C113.915 149.153 109.206 149.788 107.354 146.296C107.274 146.161 107.222 146.011 107.2 145.855C107.177 145.699 107.186 145.541 107.226 145.388C107.265 145.236 107.334 145.093 107.429 144.967C107.523 144.842 107.642 144.736 107.778 144.656C108.086 144.491 108.447 144.453 108.783 144.55C110.529 144.974 111.958 144.762 111.534 143.386C111.111 142.011 107.936 143.862 106.931 143.704C104.709 143.28 104.18 141.429 105.026 140.106C105.714 139.048 108.836 139.259 108.307 138.201C107.513 136.614 105.503 138.413 104.55 137.249C103.069 135.397 103.968 132.646 104.974 131.799C105.767 131.111 108.571 130.37 110.37 131.587C112.011 132.751 110.635 136.614 111.481 136.878C113.122 137.302 112.487 133.492 114.021 132.751C114.921 132.275 117.143 133.175 117.354 134.762C117.672 136.878 114.18 140 116.085 140.688C117.831 141.323 117.249 138.995 118.042 137.937C118.307 137.566 119.153 136.931 119.841 137.407Z" fill="#E9EDF4"/>
<path d="M126.032 172.381C126.01 172.383 125.989 172.381 125.968 172.374C125.948 172.367 125.929 172.355 125.914 172.34C125.899 172.325 125.887 172.306 125.88 172.286C125.873 172.265 125.87 172.244 125.873 172.222C124.225 157.808 117.557 144.434 107.037 134.444C107.011 134.405 106.997 134.359 106.997 134.312C106.997 134.265 107.011 134.219 107.037 134.18C107.076 134.154 107.122 134.14 107.169 134.14C107.216 134.14 107.262 134.154 107.302 134.18C117.868 144.235 124.571 157.679 126.243 172.169C126.246 172.198 126.242 172.226 126.232 172.253C126.222 172.28 126.207 172.304 126.187 172.324C126.167 172.344 126.142 172.36 126.116 172.37C126.089 172.38 126.06 172.383 126.032 172.381Z" fill="#CDE4F7"/>
<path d="M118.624 179.101H132.275L134.339 160.423H116.455L118.624 179.101Z" fill="#E9EDF4"/>
<path d="M134.392 163.757H116.402C116.276 163.757 116.155 163.707 116.065 163.617C115.976 163.528 115.926 163.407 115.926 163.28L115.714 160.952C115.714 160.821 115.762 160.694 115.85 160.596C115.938 160.498 116.06 160.437 116.191 160.423H134.656C134.782 160.423 134.904 160.473 134.993 160.563C135.082 160.652 135.132 160.773 135.132 160.9V160.952L134.921 163.28C134.901 163.409 134.838 163.526 134.741 163.613C134.645 163.7 134.521 163.751 134.392 163.757Z" fill="#E9EDF4"/>
<path d="M247.778 230.952H301.111V284.286H247.778V230.952Z" fill="#F8C47A"/>
<path d="M327.831 222.063L301.164 230.952V284.339L327.831 275.45V222.063Z" fill="#E19A54"/>
<path d="M247.778 230.952L274.497 222.063H327.831L301.164 230.952H247.778Z" fill="#FFDF9A"/>
<path d="M280.741 234.392H298.836V242.222H280.741V234.392Z" fill="#E4E6E6"/>
<path d="M282.54 235.132H282.91V241.323H282.54V235.132ZM283.492 235.132H283.862V241.323H283.492V235.132ZM284.444 235.132H284.815V241.323H284.444V235.132ZM285.397 235.132H285.767V241.323H285.397V235.132Z" fill="#E4E6E6"/>
<path d="M285.45 235.132H285.82V241.323H285.45V235.132ZM286.402 235.132H286.772V241.323H286.402V235.132ZM287.354 235.132H287.725V241.323H287.354V235.132ZM288.307 235.132H288.677V241.323H288.307V235.132ZM288.889 235.132H289.259V241.323H288.889V235.132ZM289.841 235.132H290.212V241.323H289.841V235.132ZM290.741 235.132H291.111V241.323H290.741V235.132ZM291.746 235.132H292.116V241.323H291.746V235.132ZM292.698 235.132H293.069V241.323H292.698V235.132ZM293.651 235.132H294.021V241.323H293.651V235.132Z" fill="#E4E6E6"/>
<path d="M293.651 235.132H294.021V241.323H293.651V235.132ZM294.603 235.132H294.974V241.323H294.603V235.132ZM295.608 235.132H295.979V241.323H295.608V235.132ZM296.561 235.132H296.931V241.323H296.561V235.132Z" fill="#E4E6E6"/>
<path d="M291.958 222.063L269.841 230.952H279.101L300.529 222.063H291.958ZM269.841 230.952V241.27H278.995L279.101 230.952H269.841ZM269.841 274.286V284.603H278.995L279.101 274.286H269.841Z" fill="#CE8D4D"/>
<path d="M309.63 243.704H350.529V284.603H309.63V243.704Z" fill="#F8C47A"/>
<path d="M371.005 236.878L350.529 243.704V284.603L371.005 277.778V236.878Z" fill="#E19A54"/>
<path d="M309.63 243.704L330.106 236.878H371.005L350.529 243.704H309.63Z" fill="#FFDF9A"/>
<path d="M356.772 271.058V282.487L362.91 280.476V269.048L356.772 271.058ZM356.772 241.587V253.016L362.91 251.005V239.577L356.772 241.587Z" fill="#D38137"/>
<path d="M322.011 239.577L321.164 239.841L319.841 240.264L315.608 241.587H356.772L362.91 239.577H322.011Z" fill="#E19A54"/>
<path d="M316.296 210.582H346.614V240.952H316.296V210.582Z" fill="#EAB973"/>
<path d="M361.799 205.503L346.667 210.582V240.899L361.799 235.873V205.503Z" fill="#D3914F"/>
<path d="M316.296 210.582L331.481 205.503H361.799L346.667 210.582H316.296Z" fill="#F1D392"/>
<path d="M335.026 212.487H345.344V216.931H335.026V212.487Z" fill="#E4E6E6"/>
<path d="M336.085 212.91H336.296V216.402H336.085V212.91ZM336.614 212.91H336.825V216.402H336.614V212.91ZM337.143 212.91H337.355V216.402H337.143V212.91ZM337.672 212.91H337.884V216.402H337.672V212.91Z" fill="#E4E6E6"/>
<path d="M337.725 212.91H337.937V216.402H337.725V212.91ZM338.254 212.91H338.466V216.402H338.254V212.91ZM338.783 212.91H338.995V216.402H338.783V212.91ZM339.365 212.91H339.577V216.402H339.365V212.91ZM339.683 212.91H339.894V216.402H339.683V212.91ZM340.212 212.91H340.423V216.402H340.212V212.91ZM340.741 212.91H340.952V216.402H340.741V212.91ZM341.27 212.91H341.481V216.402H341.27V212.91ZM341.852 212.91H342.063V216.402H341.852V212.91ZM342.381 212.91H342.593V216.402H342.381V212.91Z" fill="#E4E6E6"/>
<path d="M342.381 212.91H342.593V216.402H342.381V212.91ZM342.963 212.91H343.175V216.402H342.963V212.91ZM343.492 212.91H343.704V216.402H343.492V212.91ZM344.021 212.91H344.233V216.402H344.021V212.91Z" fill="#E4E6E6"/>
<path d="M341.429 205.503L328.836 210.582H334.127L346.296 205.503H341.429ZM328.836 210.582V216.455H334.074L334.127 210.582H328.836ZM328.836 235.185V241.058H334.074L334.127 235.185H328.836Z" fill="#C08448"/>
<path d="M353.016 231.27H406.349V284.603H353.016V231.27Z" fill="#F8C47A"/>
<path d="M433.016 222.381L406.349 231.27V284.603L433.016 275.714V222.381Z" fill="#E19A54"/>
<path d="M353.016 231.27L379.682 222.381H433.016L406.349 231.27H353.016Z" fill="#FFDF9A"/>
<path d="M414.497 266.931V281.852L422.487 279.259V264.286L414.497 266.931ZM414.497 228.571V243.439L422.487 240.847V225.873L414.497 228.571Z" fill="#D38137"/>
<path d="M369.153 225.873L368.042 226.243L366.349 226.825L360.794 228.571H414.497L422.487 225.873H369.153Z" fill="#E19A54"/>
<path d="M385.979 234.656H404.074V242.487H385.979V234.656Z" fill="#E4E6E6"/>
<path d="M387.725 235.397H388.095V241.587H387.725V235.397ZM388.73 235.397H389.101V241.587H388.73V235.397ZM389.683 235.397H390.053V241.587H389.683V235.397ZM390.635 235.397H391.005V241.587H390.635V235.397Z" fill="#E4E6E6"/>
<path d="M390.635 235.397H391.005V241.587H390.635V235.397ZM391.587 235.397H391.958V241.587H391.587V235.397ZM392.593 235.397H392.963V241.587H392.593V235.397ZM393.545 235.397H393.915V241.587H393.545V235.397ZM394.127 235.397H394.497V241.587H394.127V235.397ZM395.079 235.397H395.45V241.587H395.079V235.397ZM395.979 235.397H396.349V241.587H395.979V235.397ZM396.931 235.397H397.302V241.587H396.931V235.397ZM397.884 235.397H398.254V241.587H397.884V235.397ZM398.836 235.397H399.206V241.587H398.836V235.397Z" fill="#E4E6E6"/>
<path d="M398.889 235.397H399.259V241.587H398.889V235.397ZM399.841 235.397H400.212V241.587H399.841V235.397ZM400.794 235.397H401.164V241.587H400.794V235.397ZM401.746 235.397H402.116V241.587H401.746V235.397Z" fill="#E4E6E6"/>
<path d="M352.54 186.455H398.254V232.169H352.54V186.455Z" fill="#E5B571"/>
<path d="M421.164 178.836L398.307 186.455V232.169L421.164 224.55V178.836Z" fill="#CE8D4D"/>
<path d="M352.54 186.455L375.45 178.836H421.164L398.307 186.455H352.54Z" fill="#ECCF8F"/>
<path d="M405.238 217.037V229.788L412.116 227.566V214.762L405.238 217.037ZM405.238 184.127V196.878L412.116 194.656V181.852L405.238 184.127Z" fill="#C07632"/>
<path d="M366.349 181.852L365.45 182.169L363.968 182.646L359.206 184.127H405.238L412.116 181.852H366.349Z" fill="#CE8D4D"/>
<path d="M380.794 189.365H396.296V196.085H380.794V189.365Z" fill="#E4E6E6"/>
<path d="M382.328 190H382.645V195.291H382.328V190ZM383.122 190H383.439V195.291H383.122V190ZM383.968 190H384.286V195.291H383.968V190ZM384.815 190H385.132V195.291H384.815V190Z" fill="#E4E6E6"/>
<path d="M384.815 190H385.132V195.291H384.815V190ZM385.661 190H385.979V195.291H385.661V190ZM386.455 190H386.772V195.291H386.455V190ZM387.301 190H387.619V195.291H387.301V190ZM387.778 190H388.095V195.291H387.778V190ZM388.571 190H388.889V195.291H388.571V190ZM389.365 190H389.682V195.291H389.365V190ZM390.212 190H390.529V195.291H390.212V190ZM391.005 190H391.323V195.291H391.005V190ZM391.852 190H392.169V195.291H391.852V190Z" fill="#E4E6E6"/>
<path d="M391.852 190H392.169V195.291H391.852V190ZM392.698 190H393.016V195.291H392.698V190ZM393.492 190H393.809V195.291H393.492V190ZM394.339 190H394.656V195.291H394.339V190Z" fill="#E4E6E6"/>
<path d="M256.825 190.476H294.868V228.519H256.825V190.476Z" fill="#E5B571"/>
<path d="M313.915 184.127L294.868 190.476V228.571L313.915 222.222V184.127Z" fill="#CE8D4D"/>
<path d="M256.825 190.476L275.873 184.127H313.915L294.868 190.476H256.825Z" fill="#ECCF8F"/>
<path d="M300.688 215.979V226.561L306.402 224.709V214.074L300.688 215.979ZM300.688 188.571V199.153L306.402 197.302V186.667L300.688 188.571Z" fill="#C07632"/>
<path d="M268.307 186.667L267.513 186.931L266.349 187.302L262.328 188.571H300.688L306.402 186.667H268.307Z" fill="#CE8D4D"/>
<path d="M280.317 192.91H293.227V198.519H280.317V192.91Z" fill="#E4E6E6"/>
<path d="M281.587 193.439H281.852V197.831H281.587V193.439ZM282.275 193.439H282.54V197.831H282.275V193.439ZM282.963 193.439H283.228V197.831H282.963V193.439ZM283.651 193.439H283.915V197.831H283.651V193.439Z" fill="#E4E6E6"/>
<path d="M283.651 193.439H283.915V197.831H283.651V193.439ZM284.339 193.439H284.603V197.831H284.339V193.439ZM285.026 193.439H285.291V197.831H285.026V193.439ZM285.714 193.439H285.979V197.831H285.714V193.439ZM286.138 193.439H286.402V197.831H286.138V193.439ZM286.825 193.439H287.09V197.831H286.825V193.439ZM287.46 193.439H287.725V197.831H287.46V193.439ZM288.148 193.439H288.413V197.831H288.148V193.439ZM288.836 193.439H289.101V197.831H288.836V193.439ZM289.524 193.439H289.788V197.831H289.524V193.439Z" fill="#E4E6E6"/>
<path d="M289.524 193.439H289.788V197.831H289.524V193.439ZM290.212 193.439H290.476V197.831H290.212V193.439ZM290.899 193.439H291.164V197.831H290.899V193.439ZM291.587 193.439H291.852V197.831H291.587V193.439Z" fill="#E4E6E6"/>
<path d="M129.206 370.423H105.132L102.169 244.868H134.497L129.206 370.423Z" fill="#02819F"/>
<path d="M165.714 370.423H138.307L133.016 244.868H165.714V370.423Z" fill="#02819F"/>
<path d="M172.54 135.026L148.889 125.714H124.233L96.8783 139.735C94.5502 141.111 94.9735 143.915 95.8201 146.508L102.487 225.503L176.614 224.497L181.429 144.233C182.169 141.587 175.026 136.19 172.54 135.026Z" fill="white"/>
<path d="M169.259 133.915C187.725 139.524 200.529 154.656 200.529 154.656L186.614 182.275L154.709 167.46L169.259 133.915ZM96.9312 139.735C96.9312 139.735 78.3069 145.979 74.4445 179.048L111.323 190.053L121.587 158.042L96.9312 139.735Z" fill="white"/>
<path d="M122.328 80.7407C124.709 87.8383 125.662 95.3367 125.132 102.804C124.974 104.921 124.709 107.037 125.238 109.048C125.767 111.058 127.249 113.016 129.365 113.333C130.212 107.619 131.005 101.905 131.905 96.2434C132.222 94.127 132.54 91.9047 131.958 89.8412C131.308 87.8048 130.03 86.0265 128.307 84.7619C126.432 83.2537 124.432 81.9084 122.328 80.7407Z" fill="#0B2B46"/>
<path d="M131.323 133.862C134.921 135.661 139.206 135.82 143.069 134.762C146.931 133.704 150.529 130.952 153.545 127.513C152.011 125.291 150.688 124.286 149.63 121.746C149.418 121.27 149.259 120.794 149.101 120.37C148.344 118.368 147.795 116.294 147.46 114.18C140.053 111.852 133.175 104.973 127.46 99.6825C128.042 105.291 127.619 114.127 126.085 119.577C126.085 119.63 126.085 119.63 126.032 119.682C125.553 121.392 124.97 123.071 124.286 124.709C122.751 128.36 127.725 132.063 131.323 133.862Z" fill="#F09976"/>
<path d="M125.979 119.577L126.085 119.63C128.128 121.049 130.401 122.106 132.804 122.751L133.651 122.963C134.626 123.181 135.617 123.323 136.614 123.386C140.455 123.648 144.296 122.862 147.725 121.111C148.201 120.899 148.624 120.635 149.101 120.37C148.344 118.368 147.795 116.294 147.46 114.18C140.053 111.852 133.175 104.973 127.46 99.6825C128.042 105.291 127.619 114.127 126.085 119.577H125.979Z" fill="#E8815F"/>
<path d="M150.847 78.2539C152.08 83.1374 151.517 88.3015 149.259 92.8042C147.355 88.3068 148.095 82.2222 150.847 78.2539Z" fill="#0B2B46"/>
<path d="M127.831 92.328C127.527 91.5959 127.136 90.9031 126.667 90.2645C126.167 89.6279 125.452 89.1952 124.656 89.0476C123.227 88.836 121.852 90.0529 121.429 91.4815C121.005 92.91 121.323 94.3915 121.746 95.7672C122.017 96.8642 122.483 97.9037 123.122 98.836C123.747 99.7898 124.712 100.471 125.82 100.741C126.367 100.862 126.936 100.832 127.467 100.655C127.998 100.478 128.471 100.16 128.836 99.7354C128.148 97.1957 127.619 94.8677 127.831 92.328Z" fill="#F09976"/>
<path d="M127.566 98.5185C127.619 98.783 127.619 99.1005 127.672 99.365C128.413 104.55 129.947 109.841 133.598 113.545C136.825 116.825 141.746 118.571 146.296 117.672C150.847 116.772 154.762 113.069 155.608 108.466C156.19 105.397 155.344 102.222 154.233 99.3121C153.122 96.4021 151.587 93.6508 150.582 90.6878C149.577 87.7248 148.889 83.6508 150 80.7407L149.63 80.5291C142.963 76.5608 135.344 75.6613 128.254 78.9418C126.995 85.3903 126.763 91.9974 127.566 98.5185Z" fill="#F09976"/>
<path d="M155.132 74.7089C154.182 77.2133 152.41 79.321 150.106 80.6878C148.306 81.8108 146.284 82.5327 144.18 82.8042C139.418 83.4391 134.656 82.1164 130.265 80.2645C130.106 80.5291 126.243 86.2433 129.153 95.0793L125.132 86.5079C124.736 85.2207 124.204 83.9792 123.545 82.8042C122.804 81.4814 121.852 80.2645 121.376 78.8359C120.899 77.4074 120.952 75.6613 122.064 74.6031C123.386 73.3333 125.556 73.6507 127.302 73.0158C130.212 71.9576 131.429 68.5714 133.175 65.9788C133.835 65.0171 134.617 64.1455 135.503 63.3862C137.495 61.6017 139.989 60.4747 142.646 60.1587C144.548 59.9495 146.472 60.19 148.264 60.8609C150.056 61.5318 151.666 62.6143 152.963 64.0211C154.194 65.4767 155.038 67.219 155.417 69.0871C155.796 70.9552 155.698 72.8887 155.132 74.7089Z" fill="#0B2B46"/>
<path d="M170.212 225.291H110.318C110.318 225.291 106.561 155.979 104.127 147.196C100.741 135.132 129.418 159.735 170.212 147.196C180.635 143.968 170.212 225.291 170.212 225.291Z" fill="#02819F"/>
<path d="M115.397 151.534H109.206V131.958L115.397 129.682V151.534ZM161.852 152.487H167.778V132.91L161.852 130.635V152.487Z" fill="#02819F"/>
<path d="M93.0687 237.936C88.2539 240.053 82.0105 238.148 79.1534 233.704C76.2962 229.259 77.2486 222.804 81.2169 219.312C87.7248 223.28 91.7989 230.423 93.0687 237.936ZM195.714 188.36C200.899 189.471 204.815 194.656 204.55 199.947C204.286 205.238 199.735 209.894 194.444 210.423C191.428 203.386 192.328 195.185 195.714 188.36Z" fill="#F09976"/>
<path d="M188.36 162.751C188.157 162.039 188.098 161.294 188.186 160.559C188.274 159.823 188.506 159.113 188.871 158.468C189.235 157.824 189.723 157.258 190.308 156.803C190.892 156.348 191.561 156.014 192.275 155.82C192.328 155.82 192.381 155.767 192.434 155.767L211.746 150.952C213.135 150.595 214.609 150.801 215.847 151.524C217.085 152.247 217.988 153.43 218.36 154.815C218.413 154.973 218.413 155.079 218.466 155.238L224.286 186.137C224.515 187.771 224.249 189.435 223.523 190.916C222.797 192.397 221.643 193.626 220.212 194.444L205.238 202.01C204.185 202.609 202.937 202.767 201.768 202.45C200.598 202.133 199.602 201.366 198.995 200.317C198.773 199.92 198.612 199.492 198.519 199.048L188.36 162.751Z" fill="#F487B3"/>
<path d="M74.9206 229.682C90.7937 261.058 133.069 271.64 169.418 253.28C205.767 234.921 222.328 194.603 206.508 163.227C190.688 131.852 148.36 121.27 112.011 139.63C75.6614 157.989 59.1005 198.307 74.9206 229.682Z" fill="#F487B3"/>
<path d="M204.233 202.54C204.274 202.47 204.329 202.409 204.394 202.36C204.459 202.312 204.533 202.277 204.612 202.257C204.691 202.237 204.773 202.234 204.853 202.246C204.933 202.258 205.01 202.286 205.079 202.328C205.229 202.43 205.34 202.579 205.397 202.751L216.138 233.439C216.247 233.735 216.243 234.062 216.126 234.355C216.008 234.648 215.786 234.887 215.503 235.026L199.841 242.963C199.557 243.099 199.233 243.126 198.93 243.038C198.628 242.95 198.368 242.754 198.201 242.487L186.243 223.968C186.086 223.678 186.017 223.348 186.045 223.018C186.073 222.689 186.197 222.376 186.402 222.116L204.233 202.54ZM105.344 252.487C105.26 252.476 105.175 252.484 105.094 252.508C105.013 252.532 104.937 252.573 104.873 252.627C104.808 252.682 104.756 252.749 104.718 252.825C104.681 252.901 104.66 252.984 104.656 253.069C104.652 253.241 104.708 253.409 104.815 253.545L123.175 280.423C123.366 280.676 123.639 280.856 123.947 280.933C124.255 281.01 124.58 280.98 124.868 280.846L140.529 272.91C140.809 272.767 141.027 272.527 141.144 272.235C141.26 271.943 141.268 271.619 141.164 271.323L133.333 250.794C133.21 250.493 132.996 250.24 132.72 250.069C132.445 249.898 132.122 249.818 131.799 249.841L105.344 252.487ZM75.873 208.624C75.873 208.624 67.672 215.344 61.9048 211.323C55.3968 206.772 50.6879 207.725 54.7619 216.085C58.836 224.444 74.2328 233.492 88.7302 229.735C103.228 225.979 90.8466 215.344 90.8466 215.344L75.873 208.624ZM148.995 134.973C148.995 134.973 152.434 125.661 163.228 119.365C174.021 113.069 179.153 112.593 179.153 112.593C179.153 112.593 192.011 132.91 180.582 149.682C169.153 166.455 154.286 153.28 154.286 153.28L148.995 134.973Z" fill="#F487B3"/>
<path d="M173.492 166.508C173.864 167.245 174.445 167.855 175.164 168.262C175.882 168.669 176.705 168.853 177.528 168.792C178.352 168.731 179.138 168.427 179.789 167.919C180.44 167.411 180.925 166.722 181.184 165.938C181.443 165.154 181.463 164.311 181.243 163.515C181.023 162.72 180.572 162.007 179.947 161.468C179.322 160.929 178.551 160.587 177.732 160.486C176.912 160.384 176.081 160.528 175.344 160.899C174.357 161.4 173.609 162.271 173.262 163.322C172.915 164.373 172.998 165.518 173.492 166.508ZM97.6191 161.852C98.5469 160.991 99.5182 160.179 100.529 159.418C102.653 160.541 104.968 161.258 107.355 161.534C104.868 163.278 102.516 165.206 100.317 167.301C99.1078 168.441 97.9765 169.66 96.9312 170.952L92.2751 167.513C93.8754 165.463 95.6645 163.567 97.6191 161.852ZM129.048 145.185C130.423 144.815 131.746 144.497 132.857 144.233C134.724 143.791 136.614 143.455 138.519 143.227L139.153 148.995C139.101 148.995 137.778 149.153 135.556 149.577C132.51 150.201 129.506 151.014 126.561 152.01C127.785 149.899 128.627 147.589 129.048 145.185Z" fill="#912A52"/>
<path d="M100.741 124.339C103.987 122.695 107.626 121.983 111.253 122.282C114.88 122.582 118.352 123.881 121.285 126.035C124.218 128.19 126.496 131.115 127.866 134.486C129.237 137.858 129.646 141.543 129.048 145.132C128.042 145.397 126.984 145.714 125.873 146.085C126.666 142.973 126.548 139.698 125.535 136.651C124.521 133.604 122.654 130.912 120.156 128.895C117.657 126.877 114.632 125.62 111.439 125.271C108.247 124.923 105.022 125.498 102.147 126.929C99.2716 128.36 96.8678 130.586 95.2208 133.343C93.5739 136.1 92.7529 139.271 92.8556 142.481C92.9583 145.691 93.9803 148.804 95.8001 151.449C97.62 154.095 100.161 156.163 103.122 157.407C102.169 158.095 101.323 158.73 100.529 159.418C95.8964 156.992 92.4147 152.828 90.8476 147.839C89.2805 142.85 89.7558 137.443 92.1694 132.804C94.0609 129.148 97.0614 126.185 100.741 124.339Z" fill="#FFDA35"/>
<path d="M111.958 158.571C110.265 159.577 108.73 160.529 107.354 161.534C104.968 161.259 102.653 160.541 100.529 159.418C101.323 158.783 102.222 158.095 103.122 157.407C105.916 158.557 108.961 158.958 111.958 158.571ZM125.873 146.138C126.984 145.767 128.042 145.45 129.048 145.185C128.661 147.59 127.836 149.903 126.614 152.011C124.973 152.54 123.227 153.175 121.429 153.915C123.565 151.757 125.098 149.075 125.873 146.138Z" fill="#FFDA35"/>
<path d="M105.556 143.915C105.266 143.914 104.98 143.852 104.716 143.733C104.451 143.615 104.215 143.443 104.021 143.227C103.811 143.026 103.652 142.776 103.56 142.499C103.468 142.223 103.445 141.928 103.492 141.64C103.657 141.006 104.007 140.435 104.497 140L106.72 138.042L109.471 141.164L107.249 143.122C106.791 143.571 106.194 143.851 105.556 143.915Z" fill="#FEBF00"/>
<path d="M94.6561 149.524C96.2354 152.649 98.7527 155.201 101.855 156.823C104.958 158.446 108.49 159.057 111.958 158.571C113.175 157.884 114.444 157.143 115.82 156.455C117.725 155.503 119.577 154.656 121.376 153.915C123.596 151.744 125.17 148.999 125.925 145.987C126.679 142.974 126.583 139.811 125.649 136.85C124.714 133.888 122.977 131.244 120.63 129.21C118.282 127.177 115.418 125.833 112.353 125.33C109.289 124.826 106.145 125.182 103.27 126.357C100.396 127.533 97.9034 129.482 96.07 131.989C94.2365 134.495 93.1338 137.461 92.8842 140.556C92.6346 143.652 93.248 146.756 94.6561 149.524ZM117.407 141.905L115.661 143.439L117.196 145.185L114.921 147.196L113.386 145.45L109.312 149.048L107.884 147.407L111.958 143.809L111.005 142.751L108.466 144.973C107.463 145.932 106.148 146.496 104.762 146.561C104.174 146.546 103.594 146.416 103.057 146.176C102.52 145.936 102.036 145.592 101.632 145.164C101.229 144.736 100.914 144.232 100.707 143.682C100.499 143.132 100.403 142.545 100.423 141.958V141.693C100.639 140.335 101.357 139.108 102.434 138.254L107.249 134.021L111.746 139.153L113.492 137.619L114.974 139.259L113.228 140.794L114.18 141.852L115.926 140.317L117.407 141.905Z" fill="#FEBF00"/>
<path d="M109.312 149.048L113.386 145.45L114.921 147.196L117.196 145.185L115.661 143.439L117.407 141.905L115.926 140.264L114.18 141.799L113.227 140.741L114.974 139.206L113.492 137.566L111.746 139.1L107.249 133.968L102.434 138.201C101.367 139.064 100.652 140.287 100.423 141.64C100.327 142.816 100.693 143.982 101.444 144.892C102.195 145.801 103.272 146.381 104.444 146.508H104.709C106.095 146.443 107.41 145.879 108.413 144.921L110.952 142.698L111.905 143.757L107.831 147.407L109.312 149.048ZM109.524 141.111L107.302 143.069C106.831 143.53 106.213 143.811 105.556 143.862C105.266 143.861 104.98 143.799 104.716 143.68C104.451 143.562 104.215 143.39 104.021 143.175C103.811 142.973 103.652 142.723 103.56 142.446C103.468 142.17 103.445 141.875 103.492 141.587C103.657 140.953 104.007 140.382 104.497 139.947L106.72 137.989L109.524 141.111Z" fill="#FEBF00"/>
<path d="M105.026 142.735L105.153 142.857H105.026V142.735Z" fill="#FEE401"/>
<path d="M105.026 142.18L105.741 142.857H105.153L105.026 142.735V142.18Z" fill="#FEE501"/>
<path d="M105.026 141.624L106.328 142.857H105.741L105.026 142.18V141.624Z" fill="#FEE601"/>
<path d="M105.026 141.069L106.915 142.857H106.328L105.026 141.624V141.069Z" fill="#FDE701"/>
<path d="M105.026 140.513L107.503 142.857H106.915L105.026 141.069V140.513Z" fill="#FDE801"/>
<path d="M105.026 139.963L108.09 142.857H107.503L105.026 140.513V139.963Z" fill="#FDE901"/>
<path d="M105.026 139.407L108.677 142.857H108.09L105.026 139.963V139.407Z" fill="#FDEA01"/>
<path d="M105.026 138.852L109.259 142.857H108.677L105.026 139.407V138.852Z" fill="#FDEC01"/>
<path d="M105.026 138.296L109.847 142.857H109.259L105.026 138.852V138.296Z" fill="#FDED01"/>
<path d="M105.026 137.825L105.069 137.778L110.191 142.624L109.974 142.857H109.847L105.026 138.296V137.825Z" fill="#FDEE01"/>
<path d="M105.066 137.788L105.343 137.496L110.466 142.343L110.19 142.635L105.066 137.788Z" fill="#FDEF01"/>
<path d="M105.344 137.487L105.624 137.196L110.746 142.042L110.466 142.333L105.344 137.487Z" fill="#FDF001"/>
<path d="M106.212 137.196L111.021 141.746L110.746 142.042L105.625 137.196H106.212Z" fill="#FCF101"/>
<path d="M106.799 137.196L111.217 141.376V141.54L111.021 141.746L106.212 137.196H106.799Z" fill="#FCF201"/>
<path d="M107.386 137.196L111.217 140.82V141.376L106.799 137.196H107.386Z" fill="#FCF301"/>
<path d="M107.974 137.196L111.217 140.264V140.82L107.386 137.196H107.974Z" fill="#FCF401"/>
<path d="M108.561 137.196L111.217 139.709V140.264L107.974 137.196H108.561Z" fill="#FCF501"/>
<path d="M109.143 137.196L111.217 139.153V139.709L108.561 137.196H109.143Z" fill="#FCF601"/>
<path d="M109.73 137.196L111.217 138.598V139.153L109.143 137.196H109.73Z" fill="#FCF701"/>
<path d="M110.318 137.196L111.217 138.048V138.598L109.73 137.196H110.318Z" fill="#FCF801"/>
<path d="M110.905 137.196L111.217 137.492V138.048L110.318 137.196H110.905Z" fill="#FCF901"/>
<path d="M111.217 137.492L110.905 137.196H111.217V137.492Z" fill="#FCFA01"/>
<path d="M101.005 146.148L106.529 151.376H101.005V146.148Z" fill="#FFD801"/>
<path d="M101.005 145.593L107.116 151.376H106.529L101.005 146.148V145.593Z" fill="#FFD801"/>
<path d="M101.005 145.037L107.704 151.375H107.116L101.005 145.592V145.037Z" fill="#FFD901"/>
<path d="M101.005 144.481L108.291 151.376H107.704L101.005 145.037V144.481Z" fill="#FFDA01"/>
<path d="M101.005 143.926L108.878 151.376H108.291L101.005 144.481V143.926Z" fill="#FFDB01"/>
<path d="M101.005 143.376L109.466 151.376H108.878L101.005 143.926V143.376Z" fill="#FFDC01"/>
<path d="M101.005 142.82L110.053 151.376H109.466L101.005 143.376V142.82Z" fill="#FEDD01"/>
<path d="M101.005 142.264L110.64 151.376H110.053L101.005 142.82V142.264Z" fill="#FEDE01"/>
<path d="M101.005 141.709L111.228 151.376H110.64L101.005 142.264V141.709Z" fill="#FEDF01"/>
<path d="M101.005 141.153L111.614 151.19L111.439 151.376H111.228L101.005 141.709V141.153Z" fill="#FEE001"/>
<path d="M101.005 140.598L111.889 150.894L111.614 151.19L101.005 141.153V140.598Z" fill="#FEE101"/>
<path d="M101.005 140.042L112.169 150.603L111.889 150.894L101.005 140.598V140.042Z" fill="#FEE201"/>
<path d="M101.005 139.487L112.445 150.307L112.169 150.603L101.005 140.042V139.487Z" fill="#FEE301"/>
<path d="M101.005 138.931L112.725 150.016L112.445 150.307L101.005 139.487V138.931Z" fill="#FEE401"/>
<path d="M101.005 138.376L113 149.725L112.725 150.016L101.005 138.931V138.376Z" fill="#FEE501"/>
<path d="M101.005 137.82L113.275 149.429L113 149.725L101.005 138.376V137.82Z" fill="#FEE601"/>
<path d="M101.005 137.27L113.556 149.137L113.275 149.428L101.005 137.82V137.27Z" fill="#FDE701"/>
<path d="M101.005 137.138L101.217 136.915L113.831 148.847L113.556 149.138L101.005 137.27V137.138Z" fill="#FDE801"/>
<path d="M101.216 136.921L101.492 136.628L114.107 148.562L113.831 148.854L101.216 136.921Z" fill="#FDE901"/>
<path d="M101.495 136.624L101.771 136.332L114.386 148.265L114.11 148.557L101.495 136.624Z" fill="#FDEA01"/>
<path d="M101.774 136.335L102.051 136.043L114.666 147.977L114.389 148.269L101.774 136.335Z" fill="#FDEC01"/>
<path d="M102.048 136.032L102.328 135.741L114.868 147.603V147.751L114.661 147.963L102.048 136.032Z" fill="#FDED01"/>
<path d="M102.328 135.741L102.603 135.45L114.868 147.047V147.603L102.328 135.741Z" fill="#FDEE01"/>
<path d="M102.603 135.45L102.878 135.153L114.868 146.492V147.048L102.603 135.45Z" fill="#FDEF01"/>
<path d="M102.878 135.153L103.159 134.862L114.868 145.936V146.492L102.878 135.153Z" fill="#FDF001"/>
<path d="M103.159 134.862L103.434 134.571L114.868 145.386V145.936L103.159 134.862Z" fill="#FCF101"/>
<path d="M103.434 134.571L103.709 134.275L114.868 144.831V145.386L103.434 134.571Z" fill="#FCF201"/>
<path d="M103.709 134.275L103.804 134.18H104.196L114.868 144.275V144.831L103.709 134.275Z" fill="#FCF301"/>
<path d="M104.783 134.18L114.868 143.719V144.275L104.196 134.18H104.783Z" fill="#FCF401"/>
<path d="M105.371 134.18L114.868 143.164V143.719L104.783 134.18H105.371Z" fill="#FCF501"/>
<path d="M105.958 134.18L114.868 142.608V143.164L105.37 134.18H105.958Z" fill="#FCF601"/>
<path d="M106.545 134.18L114.868 142.053V142.608L105.958 134.18H106.545Z" fill="#FCF701"/>
<path d="M107.132 134.18L114.868 141.497V142.053L106.545 134.18H107.132Z" fill="#FCF801"/>
<path d="M107.72 134.18L114.868 140.942V141.497L107.132 134.18H107.72Z" fill="#FCF901"/>
<path d="M108.302 134.18L114.868 140.386V140.942L107.72 134.18H108.302Z" fill="#FCFA01"/>
<path d="M108.889 134.18L114.868 139.836V140.386L108.302 134.18H108.889Z" fill="#FBFB01"/>
<path d="M109.476 134.18L114.868 139.28V139.836L108.889 134.18H109.476Z" fill="#FBFC01"/>
<path d="M110.064 134.18L114.868 138.725V139.28L109.476 134.18H110.064Z" fill="#FBFD01"/>
<path d="M110.651 134.18L114.868 138.169V138.725L110.064 134.18H110.651Z" fill="#FBFE01"/>
<path d="M111.238 134.18L114.868 137.614V138.169L110.651 134.18H111.238Z" fill="#FBFF01"/>
<path d="M114.868 137.614L111.238 134.18H114.868V137.614Z" fill="#FBFF01"/>
<path d="M210.159 205.714C209.683 205.714 209.206 205.661 208.73 205.661C197.725 204.815 187.884 200.37 181.693 193.492L180.794 192.487L178.836 194.233L179.735 195.238C182.408 198.191 185.555 200.677 189.048 202.593C195.062 205.888 201.727 207.821 208.571 208.254L209.471 208.307C209.823 207.48 210.054 206.607 210.159 205.714Z" fill="#912A52"/>
<path d="M69.5238 209.1C64.3915 207.831 60.582 202.54 61.0053 197.301C61.4285 192.063 66.0846 187.46 71.3756 187.09C74.1799 194.18 73.0687 202.381 69.5238 209.1ZM191.429 237.037C194.021 241.64 192.804 248.042 188.677 251.323C184.55 254.603 178.042 254.339 174.127 250.794C177.354 243.862 184.074 239.048 191.429 237.037Z" fill="#F09976"/>
</g>
<defs>
<clipPath id="clip0_625_25068">
<rect width="481.481" height="300" fill="white"/>
</clipPath>
</defs>
</svg>
