<svg width="88" height="88" viewBox="0 0 88 88" fill="none" xmlns="http://www.w3.org/2000/svg">
<path d="M12.1709 81.77H5.37093C5.10571 81.77 4.85135 81.6646 4.66382 81.4771C4.47628 81.2896 4.37093 81.0352 4.37093 80.77C4.37093 80.5048 4.47628 80.2504 4.66382 80.0629C4.85135 79.8754 5.10571 79.77 5.37093 79.77H12.1709C12.4361 79.77 12.6905 79.8754 12.878 80.0629C13.0656 80.2504 13.1709 80.5048 13.1709 80.77C13.1709 81.0352 13.0656 81.2896 12.878 81.4771C12.6905 81.6646 12.4361 81.77 12.1709 81.77ZM8.29093 6.83999C8.15932 6.84075 8.02886 6.81553 7.90702 6.76576C7.78518 6.716 7.67437 6.64267 7.58093 6.54999L3.30093 2.25999C3.11262 2.07169 3.00684 1.81629 3.00684 1.54999C3.00684 1.28369 3.11262 1.02829 3.30093 0.83999C3.48923 0.651686 3.74462 0.545898 4.01093 0.545898C4.27723 0.545898 4.53262 0.651686 4.72093 0.83999L9.00093 5.12999C9.18718 5.31735 9.29172 5.5708 9.29172 5.83499C9.29172 6.09918 9.18718 6.35263 9.00093 6.53999C8.90831 6.63448 8.79787 6.70965 8.67599 6.76114C8.55412 6.81264 8.42323 6.83944 8.29093 6.83999Z" fill="#D5D8DE"/>
<path d="M4.00079 6.83999C3.86919 6.84075 3.73872 6.81553 3.61689 6.76576C3.49505 6.716 3.38423 6.64267 3.29079 6.54999C3.10454 6.36263 3 6.10918 3 5.84499C3 5.5808 3.10454 5.32735 3.29079 5.13999L7.5808 0.83999C7.7691 0.651686 8.02449 0.545898 8.29079 0.545898C8.5571 0.545898 8.81249 0.651686 9.00079 0.83999C9.1891 1.02829 9.29488 1.28369 9.29488 1.54999C9.29488 1.81629 9.1891 2.07169 9.00079 2.25999L4.72079 6.54999C4.62617 6.64388 4.51373 6.7179 4.39008 6.7677C4.26643 6.8175 4.13408 6.84208 4.00079 6.83999ZM80.8208 42.57C80.0297 42.57 79.2563 42.3354 78.5985 41.8959C77.9407 41.4563 77.428 40.8316 77.1253 40.1007C76.8225 39.3698 76.7433 38.5656 76.8977 37.7896C77.052 37.0137 77.433 36.301 77.9924 35.7416C78.5518 35.1822 79.2645 34.8012 80.0404 34.6468C80.8164 34.4925 81.6206 34.5717 82.3515 34.8745C83.0824 35.1772 83.7071 35.6899 84.1467 36.3477C84.5862 37.0055 84.8208 37.7789 84.8208 38.57C84.8208 39.6309 84.3994 40.6483 83.6492 41.3984C82.8991 42.1486 81.8817 42.57 80.8208 42.57ZM80.8208 36.51C80.4252 36.51 80.0386 36.6273 79.7097 36.847C79.3808 37.0668 79.1244 37.3792 78.973 37.7446C78.8217 38.1101 78.7821 38.5122 78.8592 38.9002C78.9364 39.2881 79.1269 39.6445 79.4066 39.9242C79.6863 40.2039 80.0426 40.3944 80.4306 40.4716C80.8186 40.5487 81.2207 40.5091 81.5862 40.3577C81.9516 40.2064 82.264 39.95 82.4837 39.6211C82.7035 39.2922 82.8208 38.9055 82.8208 38.51C82.8208 37.9796 82.6101 37.4708 82.235 37.0958C81.8599 36.7207 81.3512 36.51 80.8208 36.51Z" fill="#D5D8DE"/>
<g opacity="0.24">
<path d="M15.8908 58.7202H14.8708C12.7611 58.7202 11.0508 60.4305 11.0508 62.5402V72.0202C11.0508 74.1299 12.7611 75.8402 14.8708 75.8402H15.8908C18.0005 75.8402 19.7108 74.1299 19.7108 72.0202V62.5402C19.7108 60.4305 18.0005 58.7202 15.8908 58.7202Z" fill="#82D494"/>
</g>
<path d="M18.0009 74.2001H9.38086C9.11564 74.2001 8.86129 74.0947 8.67375 73.9072C8.48622 73.7196 8.38086 73.4653 8.38086 73.2001V56.0801C8.38086 55.8149 8.48622 55.5605 8.67375 55.373C8.86129 55.1854 9.11564 55.0801 9.38086 55.0801H18.0009C18.2661 55.0801 18.5204 55.1854 18.708 55.373C18.8955 55.5605 19.0009 55.8149 19.0009 56.0801V73.2001C19.0009 73.4653 18.8955 73.7196 18.708 73.9072C18.5204 74.0947 18.2661 74.2001 18.0009 74.2001ZM10.3409 72.2001H17.0009V57.0801H10.3809L10.3409 72.2001Z" fill="#D5D8DE"/>
<path d="M44.001 72.6398H18.001C17.7358 72.6398 17.4814 72.5344 17.2939 72.3469C17.1063 72.1594 17.001 71.905 17.001 71.6398V59.2998C17.001 59.0346 17.1063 58.7802 17.2939 58.5927C17.4814 58.4052 17.7358 58.2998 18.001 58.2998C18.2662 58.2998 18.5205 58.4052 18.7081 58.5927C18.8956 58.7802 19.001 59.0346 19.001 59.2998V70.6398H44.001C44.2662 70.6398 44.5205 70.7452 44.7081 70.9327C44.8956 71.1202 45.001 71.3746 45.001 71.6398C45.001 71.905 44.8956 72.1594 44.7081 72.3469C44.5205 72.5344 44.2662 72.6398 44.001 72.6398Z" fill="#D5D8DE"/>
<path d="M18.001 60.75C17.8663 60.7495 17.7331 60.7218 17.6094 60.6685C17.4857 60.6153 17.374 60.5375 17.281 60.44C17.0948 60.2527 16.9902 59.9992 16.9902 59.735C16.9902 59.4709 17.0948 59.2174 17.281 59.03C19.7742 56.6212 23.0695 55.2184 26.5339 55.091C29.9983 54.9637 33.3877 56.1208 36.051 58.34C36.1521 58.4241 36.2357 58.5272 36.297 58.6436C36.3582 58.7599 36.396 58.8872 36.408 59.0181C36.4201 59.149 36.4063 59.2811 36.3673 59.4067C36.3284 59.5322 36.2651 59.6489 36.181 59.75C36.097 59.8512 35.9938 59.9347 35.8775 59.996C35.7612 60.0572 35.6339 60.095 35.5029 60.1071C35.372 60.1191 35.24 60.1053 35.1144 60.0663C34.9888 60.0274 34.8721 59.9641 34.771 59.88C32.4924 57.9635 29.5827 56.9625 26.6073 57.0715C23.6319 57.1806 20.8032 58.3919 18.671 60.47C18.4907 60.644 18.2516 60.744 18.001 60.75Z" fill="#D5D8DE"/>
<path d="M47.2011 65.1499C46.9642 65.1545 46.7334 65.0749 46.5498 64.9252C46.3662 64.7755 46.2417 64.5655 46.1985 64.3326C46.1553 64.0997 46.1962 63.859 46.3138 63.6534C46.4315 63.4478 46.6184 63.2906 46.8411 63.2099C47.1073 63.094 47.3305 62.8975 47.4793 62.6482C47.6282 62.3989 47.6952 62.1093 47.6711 61.8199C47.6672 61.6155 47.6229 61.4139 47.5407 61.2266C47.4586 61.0394 47.3402 60.8703 47.1924 60.729C47.0446 60.5877 46.8704 60.4771 46.6796 60.4034C46.4889 60.3298 46.2855 60.2946 46.0811 60.2999H35.6011C35.3359 60.2999 35.0815 60.1946 34.894 60.007C34.7064 59.8195 34.6011 59.5651 34.6011 59.2999C34.6011 59.0347 34.7064 58.7804 34.894 58.5928C35.0815 58.4053 35.3359 58.2999 35.6011 58.2999H46.0811C47.0235 58.2919 47.9307 58.658 48.6037 59.3178C49.2767 59.9777 49.6605 60.8775 49.6711 61.8199C49.7045 62.5157 49.519 63.2045 49.1405 63.7893C48.762 64.3741 48.2096 64.8255 47.5611 65.0799C47.447 65.1272 47.3246 65.151 47.2011 65.1499Z" fill="#D5D8DE"/>
<path d="M44.0611 72.6401C43.8372 72.6435 43.6187 72.5717 43.4405 72.4361C43.2623 72.3006 43.1347 72.1091 43.0782 71.8924C43.0218 71.6757 43.0396 71.4464 43.129 71.2411C43.2184 71.0358 43.3741 70.8664 43.5711 70.7601L62.4811 60.3201C62.8339 60.1238 63.0942 59.7955 63.2049 59.4073C63.3155 59.0191 63.2674 58.6028 63.0711 58.2501C62.8749 57.8974 62.5465 57.637 62.1583 57.5264C61.7701 57.4157 61.3539 57.4638 61.0011 57.6601L47.6811 65.0001C47.5662 65.0658 47.4395 65.1081 47.3082 65.1248C47.1769 65.1415 47.0437 65.1322 46.916 65.0974C46.6581 65.027 46.4387 64.8572 46.3061 64.6251C46.1735 64.393 46.1385 64.1178 46.2089 63.8599C46.2792 63.6021 46.4491 63.3827 46.6811 63.2501L60.0011 55.9101C60.8196 55.4594 61.7833 55.3515 62.6811 55.6101C63.1319 55.7344 63.5533 55.9473 63.9209 56.2363C64.2885 56.5253 64.5947 56.8846 64.8219 57.2933C65.0491 57.702 65.1925 58.1519 65.2439 58.6166C65.2953 59.0813 65.2535 59.5517 65.1211 60.0001C64.9963 60.4448 64.7843 60.8603 64.4977 61.2225C64.211 61.5847 63.8553 61.8864 63.4511 62.1101L44.5411 72.5101C44.3957 72.5957 44.2299 72.6406 44.0611 72.6401Z" fill="#D5D8DE"/>
<path d="M47.2007 65.1499H35.4707C35.2055 65.1499 34.9511 65.0445 34.7636 64.857C34.5761 64.6695 34.4707 64.4151 34.4707 64.1499C34.4707 63.8847 34.5761 63.6303 34.7636 63.4428C34.9511 63.2553 35.2055 63.1499 35.4707 63.1499H47.2007C47.4659 63.1499 47.7203 63.2553 47.9078 63.4428C48.0953 63.6303 48.2007 63.8847 48.2007 64.1499C48.2007 64.4151 48.0953 64.6695 47.9078 64.857C47.7203 65.0445 47.4659 65.1499 47.2007 65.1499Z" fill="#D5D8DE"/>
<path opacity="0.24" d="M61.1713 25.4102H15.6913C13.0238 25.4102 10.8613 27.5726 10.8613 30.2402V44.5402C10.8613 47.2077 13.0238 49.3702 15.6913 49.3702H61.1713C63.8389 49.3702 66.0013 47.2077 66.0013 44.5402V30.2402C66.0013 27.5726 63.8389 25.4102 61.1713 25.4102Z" fill="#82D494"/>
<path d="M33.5107 41.2602C33.2455 41.2602 32.9912 41.1548 32.8036 40.9673C32.6161 40.7797 32.5107 40.5254 32.5107 40.2602V28.1802C32.5107 27.915 32.6161 27.6606 32.8036 27.4731C32.9912 27.2855 33.2455 27.1802 33.5107 27.1802C33.776 27.1802 34.0303 27.2855 34.2179 27.4731C34.4054 27.6606 34.5107 27.915 34.5107 28.1802V40.2602C34.5107 40.5254 34.4054 40.7797 34.2179 40.9673C34.0303 41.1548 33.776 41.2602 33.5107 41.2602Z" fill="#FDD509"/>
<path d="M37.781 35.5698H32.061C31.7958 35.5698 31.5415 35.4644 31.3539 35.2769C31.1664 35.0894 31.061 34.835 31.061 34.5698C31.061 34.3046 31.1664 34.0502 31.3539 33.8627C31.5415 33.6752 31.7958 33.5698 32.061 33.5698H37.781C38.0817 33.5901 38.3834 33.5484 38.6673 33.4473C38.9513 33.3462 39.2114 33.1878 39.4316 32.982C39.6518 32.7762 39.8273 32.5273 39.9473 32.2509C40.0673 31.9744 40.1293 31.6762 40.1293 31.3748C40.1293 31.0734 40.0673 30.7752 39.9473 30.4988C39.8273 30.2223 39.6518 29.9734 39.4316 29.7676C39.2114 29.5618 38.9513 29.4034 38.6673 29.3023C38.3834 29.2012 38.0817 29.1595 37.781 29.1798H33.511C33.2458 29.1798 32.9915 29.0744 32.8039 28.8869C32.6164 28.6994 32.511 28.445 32.511 28.1798C32.511 27.9146 32.6164 27.6602 32.8039 27.4727C32.9915 27.2852 33.2458 27.1798 33.511 27.1798H37.781C38.3492 27.1521 38.917 27.24 39.4501 27.4383C39.9832 27.6366 40.4705 27.9411 40.8824 28.3334C41.2943 28.7257 41.6222 29.1975 41.8463 29.7203C42.0704 30.2431 42.1859 30.806 42.1859 31.3748C42.1859 31.9436 42.0704 32.5065 41.8463 33.0293C41.6222 33.5521 41.2943 34.024 40.8824 34.4162C40.4705 34.8085 39.9832 35.113 39.4501 35.3113C38.917 35.5096 38.3492 35.5976 37.781 35.5698ZM36.861 38.3098H32.061C31.7958 38.3098 31.5415 38.2044 31.3539 38.0169C31.1664 37.8294 31.061 37.575 31.061 37.3098C31.061 37.0446 31.1664 36.7902 31.3539 36.6027C31.5415 36.4152 31.7958 36.3098 32.061 36.3098H36.861C37.1263 36.3098 37.3806 36.4152 37.5681 36.6027C37.7557 36.7902 37.861 37.0446 37.861 37.3098C37.861 37.575 37.7557 37.8294 37.5681 38.0169C37.3806 38.2044 37.1263 38.3098 36.861 38.3098Z" fill="#FDD509"/>
<path d="M8.00098 32.9999C7.73576 32.9999 7.48141 32.8946 7.29387 32.707C7.10633 32.5195 7.00098 32.2651 7.00098 31.9999C7.00098 31.7347 7.10633 31.4804 7.29387 31.2928C7.48141 31.1053 7.73576 30.9999 8.00098 30.9999C10.2748 30.9973 12.4546 30.0921 14.0615 28.4834C15.6684 26.8746 16.571 24.6937 16.571 22.4199C16.571 22.1547 16.6763 21.9004 16.8639 21.7128C17.0514 21.5253 17.3058 21.4199 17.571 21.4199C17.8362 21.4199 18.0905 21.5253 18.2781 21.7128C18.4656 21.9004 18.571 22.1547 18.571 22.4199C18.5683 25.2234 17.4542 27.9114 15.4728 29.8947C13.4914 31.8779 10.8044 32.9946 8.00098 32.9999ZM17.561 47.4099C17.2958 47.4099 17.0414 47.3046 16.8539 47.117C16.6663 46.9295 16.561 46.6751 16.561 46.4099C16.561 44.1387 15.6594 41.9604 14.0544 40.3535C12.4494 38.7466 10.2721 37.8426 8.00098 37.8399C7.73576 37.8399 7.48141 37.7346 7.29387 37.547C7.10633 37.3595 7.00098 37.1051 7.00098 36.8399C7.00098 36.5747 7.10633 36.3204 7.29387 36.1328C7.48141 35.9453 7.73576 35.8399 8.00098 35.8399C10.8018 35.8452 13.4862 36.9609 15.4657 38.9423C17.4452 40.9237 18.5583 43.6091 18.561 46.4099C18.561 46.6751 18.4556 46.9295 18.2681 47.117C18.0805 47.3046 17.8262 47.4099 17.561 47.4099ZM62.391 33.4899C59.8378 33.4873 57.3899 32.4718 55.5845 30.6664C53.7791 28.861 52.7636 26.4131 52.761 23.8599C52.761 23.5947 52.8663 23.3404 53.0539 23.1528C53.2414 22.9653 53.4958 22.8599 53.761 22.8599C54.0262 22.8599 54.2805 22.9653 54.4681 23.1528C54.6556 23.3404 54.761 23.5947 54.761 23.8599C54.7636 25.8827 55.5683 27.8219 56.9987 29.2522C58.429 30.6826 60.3682 31.4873 62.391 31.4899C62.6562 31.4899 62.9105 31.5953 63.0981 31.7828C63.2856 31.9704 63.391 32.2247 63.391 32.4899C63.391 32.7551 63.2856 33.0095 63.0981 33.197C62.9105 33.3846 62.6562 33.4899 62.391 33.4899ZM53.761 47.5299C53.4958 47.5299 53.2414 47.4246 53.0539 47.237C52.8663 47.0495 52.761 46.7951 52.761 46.5299C52.7623 45.1865 53.0282 43.8565 53.5435 42.6158C54.0588 41.3752 54.8135 40.2482 55.7643 39.2991C56.7152 38.3501 57.8437 37.5977 59.0854 37.0848C60.327 36.5719 61.6576 36.3086 63.001 36.3099C63.2662 36.3099 63.5205 36.4153 63.7081 36.6028C63.8956 36.7904 64.001 37.0447 64.001 37.3099C64.001 37.5751 63.8956 37.8295 63.7081 38.017C63.5205 38.2046 63.2662 38.3099 63.001 38.3099C60.8217 38.3126 58.7325 39.1795 57.1915 40.7204C55.6505 42.2614 54.7836 44.3507 54.781 46.5299C54.781 46.6629 54.7545 46.7946 54.703 46.9173C54.6515 47.0399 54.576 47.1511 54.481 47.2442C54.3861 47.3373 54.2734 47.4106 54.1498 47.4596C54.0262 47.5087 53.894 47.5326 53.761 47.5299Z" fill="#D5D8DE"/>
<path d="M58.321 47.4102H12.841C12.0745 47.4115 11.3153 47.2617 10.6069 46.9693C9.89838 46.6769 9.2545 46.2477 8.71208 45.7062C8.16965 45.1647 7.73932 44.5215 7.44571 43.8136C7.1521 43.1056 7.00098 42.3466 7.00098 41.5802V27.2802C7.00098 25.734 7.61521 24.2511 8.70855 23.1578C9.80188 22.0644 11.2848 21.4502 12.831 21.4502H58.321C59.8672 21.4502 61.3501 22.0644 62.4434 23.1578C63.5368 24.2511 64.151 25.734 64.151 27.2802V41.5802C64.151 43.1264 63.5368 44.6093 62.4434 45.7026C61.3501 46.796 59.8672 47.4102 58.321 47.4102ZM12.841 23.4102C12.3342 23.4102 11.8324 23.5105 11.3645 23.7053C10.8967 23.9002 10.472 24.1857 10.115 24.5455C9.75805 24.9053 9.47583 25.3321 9.28462 25.8015C9.09342 26.2708 8.99702 26.7734 9.00098 27.2802V41.5802C9.00362 42.5952 9.40798 43.5678 10.1257 44.2855C10.8434 45.0032 11.816 45.4076 12.831 45.4102H58.321C59.3359 45.4076 60.3086 45.0032 61.0263 44.2855C61.744 43.5678 62.1483 42.5952 62.151 41.5802V27.2802C62.1483 26.2652 61.744 25.2926 61.0263 24.5749C60.3086 23.8572 59.3359 23.4528 58.321 23.4502L12.841 23.4102Z" fill="#D5D8DE"/>
</svg>
