<svg width="60" height="60" viewBox="0 0 60 60" fill="none" xmlns="http://www.w3.org/2000/svg">
<g clip-path="url(#clip0_526_18253)">
<path d="M27.645 26.9795C27.5388 26.981 27.4337 26.9577 27.3382 26.9114C27.2247 26.8542 27.1294 26.7664 27.0632 26.658C26.9969 26.5496 26.9623 26.4248 26.9632 26.2977V14.7409C26.9632 14.5601 27.035 14.3866 27.1629 14.2588C27.2907 14.1309 27.4641 14.0591 27.645 14.0591H37.4904C37.6713 14.0591 37.8447 14.1309 37.9725 14.2588C38.1004 14.3866 38.1722 14.5601 38.1722 14.7409V26.1954C38.1735 26.3226 38.1392 26.4477 38.0731 26.5564C38.0071 26.6651 37.9119 26.7531 37.7984 26.8106C37.6849 26.8681 37.5576 26.8926 37.4309 26.8815C37.3042 26.8704 37.1831 26.824 37.0813 26.7477L32.5677 23.3727L28.0541 26.8364C27.9369 26.9273 27.7933 26.9776 27.645 26.9795ZM28.3268 15.4227V24.9136L32.145 21.9818C32.2636 21.8917 32.4085 21.8429 32.5575 21.8429C32.7065 21.8429 32.8513 21.8917 32.97 21.9818L36.8086 24.8454V15.4227H28.3268ZM47.6427 33.2523H39.0791C38.8982 33.2523 38.7248 33.1804 38.5969 33.0526C38.4691 32.9247 38.3972 32.7513 38.3972 32.5704C38.3972 32.3896 38.4691 32.2162 38.5969 32.0883C38.7248 31.9605 38.8982 31.8886 39.0791 31.8886H47.6427C47.8235 31.8886 47.997 31.9605 48.1248 32.0883C48.2527 32.2162 48.3245 32.3896 48.3245 32.5704C48.3245 32.7513 48.2527 32.9247 48.1248 33.0526C47.997 33.1804 47.8235 33.2523 47.6427 33.2523ZM42.9722 36.6273H39.2632C39.0823 36.6273 38.9089 36.5554 38.781 36.4276C38.6532 36.2997 38.5813 36.1263 38.5813 35.9454C38.5813 35.7646 38.6532 35.5912 38.781 35.4633C38.9089 35.3355 39.0823 35.2636 39.2632 35.2636H42.9722C43.1531 35.2636 43.3265 35.3355 43.4544 35.4633C43.5822 35.5912 43.6541 35.7646 43.6541 35.9454C43.6541 36.1263 43.5822 36.2997 43.4544 36.4276C43.3265 36.5554 43.1531 36.6273 42.9722 36.6273Z" fill="#FDD509"/>
<path d="M48.9519 40.9091H26.2815C26.1007 40.9091 25.9272 40.8372 25.7994 40.7094C25.6715 40.5815 25.5997 40.4081 25.5997 40.2273C25.5997 40.0464 25.6715 39.873 25.7994 39.7451C25.9272 39.6173 26.1007 39.5454 26.2815 39.5454H48.9519C49.7446 39.5454 50.5049 39.231 51.066 38.6712C51.6272 38.1113 51.9433 37.3517 51.9451 36.5591V18.4091C51.9446 18.0173 51.8666 17.6294 51.7157 17.2679C51.5647 16.9063 51.3438 16.5781 51.0656 16.3023C50.7911 16.0207 50.4621 15.7981 50.0987 15.648C49.7353 15.498 49.3451 15.4236 48.9519 15.4295H16.3338C15.5429 15.4295 14.7843 15.7432 14.2245 16.3018C13.6646 16.8604 13.3492 17.6182 13.3474 18.4091V25.4045C13.3474 25.5854 13.2756 25.7588 13.1477 25.8867C13.0198 26.0145 12.8464 26.0864 12.6656 26.0864C12.4848 26.0864 12.3113 26.0145 12.1835 25.8867C12.0556 25.7588 11.9838 25.5854 11.9838 25.4045V18.4091C11.9838 17.2554 12.4421 16.149 13.2578 15.3332C14.0736 14.5174 15.1801 14.0591 16.3338 14.0591H48.9588C50.1125 14.0591 51.2189 14.5174 52.0347 15.3332C52.8505 16.149 53.3088 17.2554 53.3088 18.4091V36.5864C53.2998 37.7359 52.8368 38.8354 52.0207 39.6451C51.2046 40.4548 50.1016 40.9091 48.9519 40.9091V40.9091ZM35.2201 57.7295C35.1304 57.7301 35.0414 57.7129 34.9584 57.6789C34.8753 57.645 34.7997 57.595 34.736 57.5318L24.3451 47.1409C24.2181 47.0132 24.1469 46.8403 24.1469 46.6602C24.1469 46.4801 24.2181 46.3073 24.3451 46.1795L28.061 42.4636C28.1888 42.3366 28.3616 42.2654 28.5417 42.2654C28.7218 42.2654 28.8947 42.3366 29.0224 42.4636L39.4133 52.8545C39.4772 52.9179 39.5279 52.9933 39.5626 53.0764C39.5972 53.1595 39.615 53.2486 39.615 53.3386C39.615 53.4286 39.5972 53.5178 39.5626 53.6008C39.5279 53.6839 39.4772 53.7593 39.4133 53.8227L35.711 57.5318C35.6465 57.5958 35.5699 57.6463 35.4856 57.6802C35.4012 57.7142 35.311 57.731 35.2201 57.7295V57.7295ZM25.7906 46.6636L35.2201 56.0864L37.9474 53.3591L28.5383 43.9159L25.7906 46.6636Z" fill="#1CB13D"/>
<path d="M24.802 47.3454C24.7118 47.345 24.6226 47.3267 24.5395 47.2916C24.4564 47.2565 24.3811 47.2052 24.3179 47.1408L21.9452 44.7681C21.8182 44.6403 21.7469 44.4675 21.7469 44.2874C21.7469 44.1073 21.8182 43.9345 21.9452 43.8067L25.6884 40.0908C25.8154 39.9648 25.9868 39.8938 26.1657 39.8931C26.2554 39.8926 26.3444 39.9098 26.4274 39.9437C26.5105 39.9776 26.5861 40.0276 26.6498 40.0908L29.0225 42.4635C29.0864 42.5269 29.1371 42.6023 29.1717 42.6854C29.2063 42.7685 29.2242 42.8576 29.2242 42.9476C29.2242 43.0376 29.2063 43.1268 29.1717 43.2098C29.1371 43.2929 29.0864 43.3683 29.0225 43.4317L25.3066 47.1408C25.241 47.2077 25.1624 47.2604 25.0756 47.2956C24.9888 47.3308 24.8957 47.3477 24.802 47.3454ZM23.4384 44.3181L24.802 45.6817L27.5293 42.9544L26.1657 41.5431L23.4384 44.3181Z" fill="#1CB13D"/>
<path d="M16.9133 46.1593C14.7122 46.1607 12.5602 45.5092 10.7294 44.2874C8.89867 43.0655 7.47139 41.3281 6.62815 39.295C5.78491 37.2619 5.56358 35.0244 5.99216 32.8654C6.42073 30.7065 7.47997 28.7232 9.03587 27.1663C10.5918 25.6094 12.5745 24.549 14.7331 24.1191C16.8918 23.6892 19.1295 23.9092 21.1631 24.7511C23.1967 25.5931 24.935 27.0194 26.158 28.8494C27.3809 30.6794 28.0337 32.831 28.0337 35.0321C28.0301 37.9809 26.8576 40.8081 24.773 42.8938C22.6885 44.9796 19.8621 46.1539 16.9133 46.1593V46.1593ZM16.9133 25.2752C14.9816 25.2739 13.093 25.8455 11.4863 26.9179C9.87965 27.9902 8.62717 29.515 7.88734 31.2993C7.1475 33.0837 6.95358 35.0474 7.33009 36.942C7.70661 38.8366 8.63664 40.5769 10.0025 41.9428C11.3684 43.3087 13.1087 44.2387 15.0033 44.6152C16.8979 44.9918 18.8616 44.7978 20.646 44.058C22.4303 43.3182 23.9551 42.0657 25.0275 40.459C26.0998 38.8523 26.6714 36.9637 26.6701 35.0321C26.6647 32.4461 25.635 29.9675 23.8064 28.1389C21.9778 26.3103 19.4993 25.2806 16.9133 25.2752V25.2752Z" fill="#1CB13D"/>
<path d="M16.9129 43.527C15.2327 43.527 13.5902 43.0288 12.1931 42.0953C10.796 41.1618 9.70716 39.835 9.06416 38.2827C8.42116 36.7303 8.25292 35.0222 8.58072 33.3742C8.90852 31.7263 9.71763 30.2125 10.9057 29.0244C12.0939 27.8363 13.6076 27.0272 15.2556 26.6994C16.9035 26.3716 18.6117 26.5398 20.164 27.1828C21.7163 27.8258 23.0432 28.9147 23.9767 30.3118C24.9101 31.7088 25.4084 33.3513 25.4084 35.0316C25.4066 37.2842 24.511 39.444 22.9181 41.0368C21.3253 42.6296 19.1655 43.5252 16.9129 43.527V43.527ZM16.9129 27.9066C15.5021 27.9066 14.123 28.325 12.95 29.109C11.777 29.8929 10.8629 31.0072 10.3233 32.3108C9.78376 33.6143 9.64292 35.0486 9.91866 36.4323C10.1944 37.8159 10.8743 39.0866 11.8724 40.0838C12.8705 41.0809 14.1419 41.7596 15.5258 42.034C16.9097 42.3084 18.3438 42.1662 19.6469 41.6254C20.9499 41.0846 22.0633 40.1694 22.8461 38.9957C23.629 37.822 24.0461 36.4424 24.0448 35.0316C24.0411 33.1419 23.2884 31.3306 21.9515 29.995C20.6146 28.6594 18.8027 27.9084 16.9129 27.9066V27.9066Z" fill="#FDD509"/>
<path d="M13.4563 39.1704C13.2774 39.1696 13.106 39.0986 12.979 38.9727C12.4624 38.456 12.0526 37.8427 11.773 37.1677C11.4934 36.4927 11.3495 35.7692 11.3495 35.0386C11.3495 34.308 11.4934 33.5845 11.773 32.9095C12.0526 32.2345 12.4624 31.6211 12.979 31.1045L13.9404 32.0454C13.1531 32.833 12.7108 33.9011 12.7108 35.0147C12.7108 36.1284 13.1531 37.1964 13.9404 37.984C14.0043 38.0474 14.055 38.1228 14.0897 38.2059C14.1243 38.289 14.1421 38.3781 14.1421 38.4681C14.1421 38.5581 14.1243 38.6473 14.0897 38.7303C14.055 38.8134 14.0043 38.8888 13.9404 38.9522C13.8784 39.0191 13.8036 39.0729 13.7205 39.1104C13.6373 39.1478 13.5475 39.1683 13.4563 39.1704V39.1704Z" fill="#FDD509"/>
<path d="M54.2291 7.2954C53.5425 7.2954 52.8712 7.09169 52.3004 6.71005C51.7295 6.32841 51.2847 5.78599 51.0222 5.15145C50.7597 4.51691 50.6914 3.81877 50.8259 3.14538C50.9603 2.472 51.2915 1.85363 51.7776 1.36855C52.2636 0.883475 52.8826 0.553486 53.5563 0.420348C54.2299 0.287211 54.9279 0.356911 55.562 0.620627C56.196 0.884344 56.7375 1.33022 57.118 1.90183C57.4986 2.47344 57.7009 3.14509 57.6996 3.83177C57.6978 4.75101 57.3314 5.63198 56.6807 6.28134C56.0301 6.9307 55.1484 7.2954 54.2291 7.2954ZM54.2291 1.72495C53.8125 1.72495 53.4051 1.84851 53.0587 2.08001C52.7122 2.31151 52.4422 2.64055 52.2827 3.02552C52.1232 3.41049 52.0815 3.8341 52.1628 4.24279C52.2441 4.65147 52.4447 5.02687 52.7394 5.32151C53.034 5.61616 53.4094 5.81681 53.8181 5.8981C54.2268 5.97939 54.6504 5.93767 55.0354 5.77821C55.4204 5.61875 55.7494 5.34872 55.9809 5.00225C56.2124 4.65579 56.336 4.24846 56.336 3.83177C56.3342 3.27356 56.1116 2.73872 55.7169 2.34401C55.3222 1.94929 54.7874 1.72675 54.2291 1.72495V1.72495ZM6.67914 20.2159C6.58941 20.2164 6.50046 20.1992 6.41739 20.1652C6.33431 20.1313 6.25876 20.0813 6.19505 20.0181L2.24732 16.0704C2.13562 15.94 2.07725 15.7722 2.08388 15.6006C2.09051 15.429 2.16165 15.2662 2.28307 15.1448C2.4045 15.0234 2.56728 14.9522 2.73888 14.9456C2.91047 14.939 3.07825 14.9973 3.20869 15.109L7.15641 19.0499C7.25216 19.1449 7.31759 19.2661 7.34444 19.3983C7.3713 19.5304 7.35836 19.6676 7.30728 19.7923C7.25619 19.9171 7.16925 20.024 7.05744 20.0994C6.94563 20.1748 6.81399 20.2153 6.67914 20.2159ZM19.0678 60.0954H13.4905C13.3097 60.0954 13.1363 60.0236 13.0084 59.8957C12.8805 59.7678 12.8087 59.5944 12.8087 59.4136C12.8087 59.2328 12.8805 59.0593 13.0084 58.9315C13.1363 58.8036 13.3097 58.7318 13.4905 58.7318H19.0678C19.2486 58.7318 19.422 58.8036 19.5499 58.9315C19.6778 59.0593 19.7496 59.2328 19.7496 59.4136C19.7496 59.5944 19.6778 59.7678 19.5499 59.8957C19.422 60.0236 19.2486 60.0954 19.0678 60.0954Z" fill="#1CB13D"/>
<path d="M2.72437 20.2161C2.58952 20.2155 2.45788 20.175 2.34607 20.0996C2.23426 20.0242 2.14732 19.9174 2.09623 19.7926C2.04515 19.6678 2.03221 19.5306 2.05907 19.3985C2.08592 19.2663 2.15136 19.1451 2.2471 19.0502L6.19482 15.1093C6.32526 14.9976 6.49304 14.9392 6.66463 14.9458C6.83623 14.9524 6.99901 15.0236 7.12044 15.145C7.24186 15.2664 7.313 15.4292 7.31963 15.6008C7.32626 15.7724 7.26789 15.9402 7.15619 16.0706L3.20846 20.0184C3.14475 20.0815 3.0692 20.1315 2.98612 20.1655C2.90305 20.1994 2.8141 20.2166 2.72437 20.2161V20.2161Z" fill="#1CB13D"/>
</g>
<defs>
<clipPath id="clip0_526_18253">
<rect width="60" height="60" fill="white"/>
</clipPath>
</defs>
</svg>
