<svg fill="none" xmlns="http://www.w3.org/2000/svg" viewBox="0 0 16 16"><path fill-rule="evenodd" clip-rule="evenodd" d="M8 2.8a2.711 2.711 0 1 0 0 5.422A2.711 2.711 0 0 0 8 2.8ZM4.489 5.511a3.511 3.511 0 1 1 7.022 0 3.511 3.511 0 0 1-7.022 0Zm3.51 5.289c-1.506 0-2.928.334-3.898.633-.639.198-1.092.77-1.202 1.474l-.103.747a.4.4 0 0 1-.792-.108l.104-.758c.15-.964.784-1.819 1.758-2.119C4.876 10.357 6.384 10 8 10c1.616 0 3.123.357 4.134.669.973.3 1.608 1.155 1.758 2.119l.001.007.103.75a.4.4 0 0 1-.792.11l-.103-.748c-.11-.703-.563-1.276-1.203-1.474C10.93 11.134 9.507 10.8 8 10.8Z" fill="#242D39"/></svg>