<svg width="20" height="20" viewBox="0 0 20 20" fill="none" xmlns="http://www.w3.org/2000/svg">
<path fill-rule="evenodd" clip-rule="evenodd" d="M13.0667 0H6.93333C1.33333 0 0 1.33333 0 6.93333V13.0667C0 18.6667 1.33333 20 6.93333 20H13.0667C18.6667 20 20 18.6667 20 13.0667V6.93333C20 1.33333 18.6667 0 13.0667 0ZM15.9375 6.35417C16.3785 6.35417 16.4712 6.58123 16.3785 6.89023C16.1931 7.73996 14.4164 10.2429 14.4164 10.2429C14.2619 10.49 14.2001 10.6137 14.4164 10.8917C14.4925 10.9984 14.6551 11.1576 14.841 11.3398C15.0323 11.5271 15.2483 11.7387 15.4206 11.9424C16.0471 12.6471 16.5192 13.2416 16.6507 13.6514C16.7709 14.0625 16.5625 14.2708 16.1459 14.2708H14.6875C14.2969 14.2708 14.1002 14.052 13.6752 13.5792C13.4951 13.3788 13.2739 13.1328 12.9795 12.8385C12.1143 12.0042 11.7435 11.896 11.5272 11.896C11.2337 11.896 11.1459 11.9792 11.1459 12.3958V13.7036C11.1459 14.0625 11.0312 14.2708 10.1042 14.2708C8.55919 14.2708 6.86131 13.3328 5.65623 11.6025C3.84859 9.06867 3.35419 7.15287 3.35419 6.7666C3.35419 6.55031 3.43752 6.35417 3.85419 6.35417H5.31252C5.68523 6.35417 5.82543 6.51729 5.96521 6.92112C6.67845 8.9988 7.88104 10.8145 8.37542 10.8145C8.56083 10.8145 8.64586 10.7292 8.64586 10.2583V8.11077C8.61238 7.49946 8.39884 7.23509 8.24068 7.03928C8.143 6.91835 8.06644 6.82357 8.06644 6.68937C8.06644 6.52627 8.2058 6.35417 8.43752 6.35417H10.7292C11.0382 6.35417 11.1458 6.51943 11.1458 6.89023V9.77937C11.1458 10.0884 11.28 10.1965 11.3727 10.1965C11.5581 10.1965 11.7126 10.0884 12.0525 9.74846C13.1031 8.57426 13.8447 6.7666 13.8447 6.7666C13.9374 6.55031 14.1084 6.35417 14.4792 6.35417H15.9375Z" fill="#242D39"/>
</svg>
